<svg width="11" height="14" viewBox="0 0 11 14" fill="none" xmlns="http://www.w3.org/2000/svg">
<path fill-rule="evenodd" clip-rule="evenodd" d="M7.55449 3.58956C7.35717 3.39196 7.07166 3.43703 6.91662 3.68836L3.7091 8.89298L2.17286 6.46805C2.01464 6.22018 1.72912 6.17974 1.53362 6.38023C1.33767 6.58072 1.30721 6.94472 1.46406 7.19258L3.35948 10.1843C3.44632 10.3207 3.57634 10.3998 3.7141 10.3998H3.71728C3.8555 10.3987 3.98643 10.3172 4.07191 10.178L7.63223 4.40018C7.78727 4.14943 7.75272 3.78601 7.55449 3.58956ZM9.82771 3.58956C9.62994 3.39196 9.34488 3.43703 9.18985 3.68836L5.98233 8.89298L5.70772 8.46023L5.13259 9.39449L5.6327 10.1843C5.71954 10.3207 5.84957 10.3998 5.98733 10.3998H5.99051C6.12872 10.3987 6.25966 10.3172 6.34513 10.178L9.90546 4.40018C10.0605 4.14943 10.0259 3.78601 9.82771 3.58956ZM4.53733 6.61226L3.96129 7.54595L3.73761 7.19293C3.5803 6.94448 3.61076 6.58048 3.80672 6.37999C4.00267 6.18008 4.28864 6.21995 4.44595 6.46839L4.53733 6.61226Z" fill="#231F20"/>
<mask id="mask0_1179_15569" style="mask-type:luminance" maskUnits="userSpaceOnUse" x="1" y="3" width="10" height="8">
<path fill-rule="evenodd" clip-rule="evenodd" d="M7.55449 3.58956C7.35717 3.39196 7.07166 3.43703 6.91662 3.68836L3.7091 8.89298L2.17286 6.46805C2.01464 6.22018 1.72912 6.17974 1.53362 6.38023C1.33767 6.58072 1.30721 6.94472 1.46406 7.19258L3.35948 10.1843C3.44632 10.3207 3.57634 10.3998 3.7141 10.3998H3.71728C3.8555 10.3987 3.98643 10.3172 4.07191 10.178L7.63223 4.40018C7.78727 4.14943 7.75272 3.78601 7.55449 3.58956ZM9.82771 3.58956C9.62994 3.39196 9.34488 3.43703 9.18985 3.68836L5.98233 8.89298L5.70772 8.46023L5.13259 9.39449L5.6327 10.1843C5.71954 10.3207 5.84957 10.3998 5.98733 10.3998H5.99051C6.12872 10.3987 6.25966 10.3172 6.34513 10.178L9.90546 4.40018C10.0605 4.14943 10.0259 3.78601 9.82771 3.58956ZM4.53733 6.61226L3.96129 7.54595L3.73761 7.19293C3.5803 6.94448 3.61076 6.58048 3.80672 6.37999C4.00267 6.18008 4.28864 6.21995 4.44595 6.46839L4.53733 6.61226Z" fill="white"/>
</mask>
<g mask="url(#mask0_1179_15569)">
<rect width="10.9115" height="13.8667" fill="#B7BDCB"/>
</g>
</svg>
