<svg width="18" height="17" viewBox="0 0 18 17" fill="none" xmlns="http://www.w3.org/2000/svg">
<path d="M11.7238 10.0804C11.6587 10.0154 11.6177 9.92638 11.6177 9.8237L11.6177 6.03125L7.82523 6.03125C7.62671 6.03125 7.46241 5.86696 7.46241 5.66844C7.46241 5.46992 7.62671 5.30562 7.82523 5.30562L11.9805 5.30562C12.179 5.30562 12.3433 5.46992 12.3433 5.66844L12.3433 9.8237C12.3433 10.0222 12.179 10.1865 11.9805 10.1865C11.8812 10.1899 11.7888 10.1454 11.7238 10.0804Z" fill="#475467"/>
<path d="M5.90505 11.7445C5.76471 11.6042 5.76471 11.3715 5.90505 11.2311L11.6656 5.47058C11.8059 5.33024 12.0387 5.33024 12.179 5.47058C12.3193 5.61091 12.3193 5.84366 12.179 5.98399L6.41847 11.7445C6.27813 11.8849 6.04538 11.8849 5.90505 11.7445Z" fill="#475467"/>
</svg>
