<svg width="20" height="20" viewBox="0 0 20 20" fill="none" xmlns="http://www.w3.org/2000/svg">
<path fill-rule="evenodd" clip-rule="evenodd" d="M7.91813 17.0573C6.64428 17.0573 5.43351 16.545 4.5089 15.615C2.67197 13.7665 2.59659 10.8357 4.34044 9.08112L10.022 3.36574C10.6135 2.77036 11.412 2.44189 12.2697 2.44189C13.1874 2.44189 14.0597 2.81036 14.7251 3.47959C16.0489 4.81112 16.0997 6.92728 14.8374 8.19651L9.1489 13.9111C8.78044 14.2827 8.28428 14.4865 7.75198 14.4865C7.18967 14.4865 6.65659 14.2619 6.25198 13.855C5.44198 13.0388 5.41659 11.738 6.19582 10.9534L11.4458 5.68036C11.7458 5.37882 12.232 5.37728 12.5335 5.67728C12.8343 5.97728 12.8358 6.4642 12.5358 6.76497L7.28659 12.0388C7.10198 12.225 7.12736 12.5534 7.34351 12.7704C7.45582 12.8834 7.60505 12.948 7.75198 12.948C7.83659 12.948 7.95813 12.9273 8.05813 12.8265L13.7466 7.11189C14.4135 6.44036 14.3635 5.29805 13.6343 4.5642C12.9366 3.86266 11.7527 3.80728 11.1127 4.45036L5.43121 10.1657C4.28198 11.3219 4.35736 13.2804 5.60044 14.5304C6.23351 15.168 7.05659 15.5188 7.91813 15.5188C8.68813 15.5188 9.40198 15.228 9.92659 14.7004L15.6089 8.98497C15.9081 8.6842 16.3951 8.68189 16.6966 8.98189C16.9974 9.28189 16.9989 9.76805 16.6997 10.0696L11.0174 15.785C10.202 16.605 9.10121 17.0573 7.91813 17.0573Z" fill="#231F20"/>
<mask id="mask0_1179_15526" style="mask-type:luminance" maskUnits="userSpaceOnUse" x="3" y="2" width="14" height="16">
<path fill-rule="evenodd" clip-rule="evenodd" d="M7.91813 17.0573C6.64428 17.0573 5.43351 16.545 4.5089 15.615C2.67197 13.7665 2.59659 10.8357 4.34044 9.08112L10.022 3.36574C10.6135 2.77036 11.412 2.44189 12.2697 2.44189C13.1874 2.44189 14.0597 2.81036 14.7251 3.47959C16.0489 4.81112 16.0997 6.92728 14.8374 8.19651L9.1489 13.9111C8.78044 14.2827 8.28428 14.4865 7.75198 14.4865C7.18967 14.4865 6.65659 14.2619 6.25198 13.855C5.44198 13.0388 5.41659 11.738 6.19582 10.9534L11.4458 5.68036C11.7458 5.37882 12.232 5.37728 12.5335 5.67728C12.8343 5.97728 12.8358 6.4642 12.5358 6.76497L7.28659 12.0388C7.10198 12.225 7.12736 12.5534 7.34351 12.7704C7.45582 12.8834 7.60505 12.948 7.75198 12.948C7.83659 12.948 7.95813 12.9273 8.05813 12.8265L13.7466 7.11189C14.4135 6.44036 14.3635 5.29805 13.6343 4.5642C12.9366 3.86266 11.7527 3.80728 11.1127 4.45036L5.43121 10.1657C4.28198 11.3219 4.35736 13.2804 5.60044 14.5304C6.23351 15.168 7.05659 15.5188 7.91813 15.5188C8.68813 15.5188 9.40198 15.228 9.92659 14.7004L15.6089 8.98497C15.9081 8.6842 16.3951 8.68189 16.6966 8.98189C16.9974 9.28189 16.9989 9.76805 16.6997 10.0696L11.0174 15.785C10.202 16.605 9.10121 17.0573 7.91813 17.0573Z" fill="white"/>
</mask>
<g mask="url(#mask0_1179_15526)">
<rect x="0.769287" y="0.90332" width="18.4615" height="18.4615" fill="#707C97"/>
</g>
</svg>
