<svg width="13" height="12" viewBox="0 0 13 12" fill="none" xmlns="http://www.w3.org/2000/svg">
<path d="M6.30968 6.60844C6.24676 6.60844 6.18383 6.59393 6.12574 6.56005L1.85154 4.08654C1.67728 3.98489 1.61919 3.76221 1.72084 3.58795C1.82249 3.41369 2.04516 3.35559 2.21458 3.45724L6.30484 5.82428L10.3709 3.47178C10.5452 3.37013 10.7678 3.43306 10.8646 3.60248C10.9663 3.77674 10.9034 3.99939 10.7339 4.10104L6.48878 6.56005C6.43553 6.58909 6.37261 6.60844 6.30968 6.60844Z" fill="#667085"/>
<path d="M6.30976 10.9944C6.11129 10.9944 5.94672 10.8298 5.94672 10.6313V6.24097C5.94672 6.04251 6.11129 5.87793 6.30976 5.87793C6.50822 5.87793 6.6728 6.04251 6.6728 6.24097V10.6313C6.6728 10.8298 6.50822 10.9944 6.30976 10.9944Z" fill="#667085"/>
<path d="M6.3097 11.1832C5.88373 11.1832 5.45776 11.0912 5.1286 10.9025L2.54375 9.46968C1.84187 9.08244 1.29005 8.14821 1.29005 7.34468V4.60491C1.29005 3.80138 1.84187 2.87202 2.54375 2.47993L5.1286 1.04712C5.78692 0.674398 6.82279 0.674398 7.48595 1.04712L10.0708 2.47993C10.7727 2.86718 11.3245 3.80138 11.3245 4.60491V7.34468C11.3245 7.39308 11.3245 7.43179 11.3148 7.48019C11.2906 7.60605 11.1987 7.71254 11.0776 7.75126C10.9566 7.79483 10.8211 7.76581 10.7194 7.68352C10.1628 7.19946 9.30116 7.1801 8.71545 7.64963C8.34273 7.9449 8.1249 8.39506 8.1249 8.87427C8.1249 9.15987 8.20235 9.44064 8.35241 9.68267C8.39113 9.75043 8.42986 9.80367 8.47342 9.85692C8.54603 9.93921 8.57508 10.0505 8.55572 10.157C8.53636 10.2635 8.46859 10.3555 8.37178 10.4087L7.48595 10.8976C7.15679 11.0912 6.73567 11.1832 6.3097 11.1832ZM6.3097 1.50213C6.00958 1.50213 5.70462 1.56506 5.4868 1.68608L2.90195 3.11889C2.43242 3.37544 2.02581 4.07245 2.02581 4.60491V7.34468C2.02581 7.87713 2.43726 8.57418 2.90195 8.83073L5.4868 10.2635C5.92729 10.5104 6.69694 10.5104 7.13743 10.2635L7.67957 9.9634C7.50047 9.63908 7.40367 9.26152 7.40367 8.87427C7.40367 8.16755 7.7183 7.5141 8.26528 7.07845C8.9236 6.55083 9.8675 6.43948 10.6033 6.75411V4.59525C10.6033 4.06279 10.1918 3.36575 9.72712 3.1092L7.14227 1.67638C6.91477 1.56505 6.60981 1.50213 6.3097 1.50213Z" fill="#667085"/>
<path d="M9.69814 11.1835C8.89461 11.1835 8.13948 10.7575 7.73288 10.0653C7.51505 9.7168 7.39888 9.30535 7.39888 8.88422C7.39888 8.1775 7.71351 7.52402 8.2605 7.08837C8.6671 6.76405 9.1802 6.58496 9.69814 6.58496C10.9664 6.58496 11.9974 7.616 11.9974 8.88422C11.9974 9.30535 11.8812 9.7168 11.6634 10.0702C11.5472 10.2735 11.3875 10.4574 11.2035 10.6123C10.8018 10.9802 10.2645 11.1835 9.69814 11.1835ZM9.69814 7.31104C9.33994 7.31104 9.0011 7.43204 8.71551 7.65955C8.34279 7.95482 8.12496 8.40501 8.12496 8.88422C8.12496 9.16981 8.20241 9.45056 8.35247 9.69258C8.63806 10.1766 9.14148 10.4574 9.69814 10.4574C10.0805 10.4574 10.4484 10.317 10.7292 10.0653C10.855 9.95882 10.9615 9.83296 11.039 9.69743C11.1939 9.45056 11.2713 9.16981 11.2713 8.88422C11.2713 8.01776 10.5646 7.31104 9.69814 7.31104Z" fill="#667085"/>
<path d="M10.216 9.75011C10.1241 9.75011 10.0321 9.71624 9.95948 9.64363L8.93812 8.62228C8.79775 8.48191 8.79775 8.24956 8.93812 8.10919C9.0785 7.96881 9.31084 7.96881 9.45122 8.10919L10.4726 9.13054C10.613 9.27091 10.613 9.50326 10.4726 9.64363C10.4 9.71624 10.308 9.75011 10.216 9.75011Z" fill="#667085"/>
<path d="M9.18025 9.76479C9.08828 9.76479 8.99631 9.73089 8.9237 9.65828C8.78333 9.51791 8.78333 9.28556 8.9237 9.14519L9.94507 8.12384C10.0854 7.98346 10.3178 7.98346 10.4582 8.12384C10.5985 8.26421 10.5985 8.49656 10.4582 8.63693L9.4368 9.65828C9.36419 9.73089 9.27222 9.76479 9.18025 9.76479Z" fill="#667085"/>
</svg>
