<svg width="27" height="26" viewBox="0 0 27 26" fill="none" xmlns="http://www.w3.org/2000/svg">
<path d="M23.095 17.3334V8.66672C23.0946 8.28677 22.9956 7.9136 22.8077 7.58465C22.6198 7.2557 22.3498 6.98253 22.0247 6.79256L14.5321 2.45922C14.2066 2.26906 13.8375 2.16895 13.4617 2.16895C13.0859 2.16895 12.7168 2.26906 12.3913 2.45922L4.89874 6.79256C4.57363 6.98253 4.30359 7.2557 4.11572 7.58465C3.92785 7.9136 3.82875 8.28677 3.82837 8.66672V17.3334C3.82875 17.7133 3.92785 18.0865 4.11572 18.4155C4.30359 18.7444 4.57363 19.0176 4.89874 19.2076L12.3913 23.5409C12.7168 23.7311 13.0859 23.8312 13.4617 23.8312C13.8375 23.8312 14.2066 23.7311 14.5321 23.5409L22.0247 19.2076C22.3498 19.0176 22.6198 18.7444 22.8077 18.4155C22.9956 18.0865 23.0946 17.7133 23.095 17.3334Z" stroke="#4F4F4F" stroke-width="2.5" stroke-linecap="round" stroke-linejoin="round"/>
<path d="M4.11719 7.54004L13.4615 13.0109L22.8059 7.54004" stroke="#4F4F4F" stroke-width="2.5" stroke-linecap="round" stroke-linejoin="round"/>
<path d="M13.4617 23.92V13" stroke="#4F4F4F" stroke-width="2.5" stroke-linecap="round" stroke-linejoin="round"/>
</svg>
