<svg width="24" height="24" viewBox="0 0 24 24" fill="none" xmlns="http://www.w3.org/2000/svg">
<rect width="24" height="24" rx="6" fill="#F8CD5B"/>
<path d="M16.3893 8.02658C16.9413 8.57858 16.9503 9.47073 16.4096 10.0338L12.6642 13.9343C12.3889 14.221 12.0111 14.3867 11.6137 14.395L10.0623 14.4276L10.0952 12.861C10.1033 12.4726 10.2618 12.1026 10.5372 11.8287L14.3642 8.02368C14.9247 7.4664 15.8304 7.4677 16.3893 8.02658Z" fill="black"/>
<path opacity="0.3" d="M12.4498 6.99902C12.7259 6.99902 12.9498 7.22288 12.9498 7.49902C12.9498 7.77517 12.7259 7.99902 12.4498 7.99902H8.99976C8.44747 7.99902 7.99976 8.44674 7.99976 8.99902V14.999C7.99976 15.5513 8.44747 15.999 8.99976 15.999H14.9998C15.552 15.999 15.9998 15.5513 15.9998 14.999V12.499C15.9998 12.2229 16.2236 11.999 16.4998 11.999C16.7759 11.999 16.9998 12.2229 16.9998 12.499V14.999C16.9998 16.1036 16.1043 16.999 14.9998 16.999H8.99976C7.89519 16.999 6.99976 16.1036 6.99976 14.999V8.99902C6.99976 7.89445 7.89519 6.99902 8.99976 6.99902H12.4498Z" fill="black"/>
</svg>
