<svg width="24" height="24" viewBox="0 0 24 24" fill="none" xmlns="http://www.w3.org/2000/svg">
<rect width="24" height="24" rx="6" fill="#F33060"/>
<path d="M8.625 9.75V16.125C8.625 16.9534 9.29657 17.625 10.125 17.625H13.875C14.7034 17.625 15.375 16.9534 15.375 16.125V9.75H8.625Z" fill="white"/>
<path opacity="0.3" fill-rule="evenodd" clip-rule="evenodd" d="M13.125 7.78125C13.125 7.31526 12.7472 6.9375 12.2813 6.9375H11.7188C11.2528 6.9375 10.875 7.31526 10.875 7.78125H8.48437C8.25138 7.78125 8.0625 7.97013 8.0625 8.20312C8.0625 8.43612 8.25138 8.625 8.48438 8.625H15.5156C15.7486 8.625 15.9375 8.43612 15.9375 8.20312C15.9375 7.97013 15.7486 7.78125 15.5156 7.78125H13.125Z" fill="white"/>
</svg>
