<svg width="18" height="18" viewBox="0 0 18 18" fill="none" xmlns="http://www.w3.org/2000/svg">
<path d="M11.9776 10.9665L10.0508 12.8655C9.04632 12.2595 8.11319 11.5423 7.26907 10.7276C6.45589 9.88237 5.73914 8.94939 5.13202 7.94584L7.02935 6.01905C7.1433 5.90254 7.22026 5.75493 7.25054 5.5948C7.28082 5.43466 7.26307 5.26914 7.19953 5.11907L5.22201 0.499685C5.14405 0.318203 5.0036 0.17069 4.82616 0.0839209C4.64872 -0.00284789 4.44605 -0.0231203 4.25494 0.0267835L0.618996 0.986496C0.437326 1.03314 0.27701 1.14038 0.164544 1.29048C0.0520783 1.44059 -0.0058054 1.62457 0.000460085 1.81203C0.231498 6.03424 1.98718 10.0291 4.94138 13.0545C7.96747 16.0099 11.9636 17.7662 16.1871 17.997C16.3746 18.0029 16.5585 17.9449 16.7086 17.8325C16.8588 17.7201 16.9663 17.56 17.0135 17.3785L17.9724 13.7458C18.0232 13.5544 18.0035 13.351 17.9168 13.1729C17.8301 12.9947 17.6823 12.8537 17.5003 12.7755L12.885 10.7972C12.7341 10.7318 12.5671 10.713 12.4054 10.7432C12.2438 10.7734 12.0948 10.8511 11.9776 10.9665Z" fill="#E9AC71"/>
</svg>
