<svg width="233" height="255" viewBox="0 0 233 255" fill="none" xmlns="http://www.w3.org/2000/svg">
<path d="M77.4284 195.08C77.3364 194.892 77.2683 194.785 77.1748 194.641C76.8112 194.08 76.3062 193.63 75.666 193.283C75.4044 193.141 75.1082 193.017 74.7747 192.897C74.4418 192.778 74.0822 192.67 73.6696 192.569C73.2362 192.465 72.8782 192.39 71.9061 192.202C70.649 191.959 70.0298 191.813 69.3555 191.609C68.8675 191.46 68.4408 191.303 67.964 191.087C66.9138 190.613 65.871 190.348 64.8446 190.298C63.9611 190.255 63.1569 190.368 62.41 190.644C62.2748 190.694 61.9466 190.841 61.8244 190.907C61.0383 191.328 60.441 191.904 60.0513 192.655C59.7363 193.263 59.5611 193.991 59.5824 194.617C59.6133 195.534 59.9777 196.391 60.7599 197.435C61.0018 197.759 61.3247 198.159 61.8656 198.78C62.6326 199.663 63.0229 200.165 63.3343 200.657C63.7797 201.361 64.1148 202.195 64.3717 203.269C64.4503 203.594 64.5173 203.893 64.6524 204.597C64.8094 205.416 64.8706 205.731 64.9743 206.114C65.0458 206.374 65.1509 206.671 65.2276 206.863C65.2481 206.914 65.269 206.97 65.2731 206.984C65.2785 206.996 65.3405 207.148 65.4239 207.316C65.5855 207.642 65.6323 207.705 65.7808 207.914C66.2287 208.544 66.8773 209.068 67.6594 209.428C67.7762 209.483 68.113 209.609 68.2384 209.645C68.995 209.867 69.7666 209.886 70.5185 209.689C70.7816 209.621 70.9588 209.557 71.2256 209.438C71.4239 209.349 71.5407 209.28 71.7019 209.185C72.6395 208.63 73.4273 207.77 74.016 206.64C74.2985 206.098 74.523 205.517 74.7088 204.849C74.8926 204.19 75.0796 203.705 75.364 203.113C75.6312 202.558 75.8838 202.116 76.4488 201.21C76.9223 200.452 77.1013 200.169 77.2751 199.849C77.7573 198.954 77.9823 198.208 78.0016 197.449C78.0207 196.703 77.8267 195.894 77.4284 195.08Z" fill="#A1A1A1" fill-opacity="0.33"/>
<path d="M82.4211 191.747C83.4679 191.077 84.2469 190.146 84.6483 189.101C84.8734 188.513 84.9559 187.89 84.8753 187.325C84.7903 186.728 84.5251 186.175 84.1149 185.747C83.8721 185.495 83.6059 185.304 83.2666 185.137C83.1626 185.086 82.8062 184.953 82.6886 184.92C81.8853 184.7 80.977 184.737 80.077 185.01C79.8125 185.091 79.7481 185.119 79.4022 185.274C79.0478 185.433 78.9483 185.474 78.6948 185.63C77.2832 186.497 76.3241 187.861 76.1517 189.243C76.0815 189.799 76.1507 190.33 76.3478 190.816C76.3872 190.913 76.4935 191.111 76.549 191.202C76.7424 191.514 76.9935 191.797 77.2927 192.014C77.3887 192.084 77.5846 192.195 77.6882 192.249C78.6335 192.738 79.8747 192.775 81.092 192.37C81.5412 192.22 82.0181 192.006 82.4211 191.747Z" fill="#A1A1A1" fill-opacity="0.33"/>
<path d="M85.9229 205.484C85.8785 205.316 85.8455 205.206 85.7638 205.028C85.5395 204.543 85.1886 204.135 84.7197 203.758C84.3492 203.461 83.9831 203.238 83.5169 203.049C83.379 202.993 83.2549 202.941 83.1105 202.897C82.1011 202.586 80.9483 202.562 79.9667 202.84C78.7345 203.187 77.8291 203.962 77.4935 204.928C77.2965 205.496 77.3087 206.116 77.5317 206.7C77.5453 206.736 77.6079 206.859 77.6663 206.975C77.7792 207.198 77.82 207.272 77.9454 207.441C78.3922 208.039 79.0823 208.541 79.8613 208.848C80.2635 209.006 80.6094 209.11 81.019 209.178C81.9794 209.337 82.9142 209.251 83.7715 208.934C83.922 208.878 84.3022 208.701 84.4261 208.628C85.1489 208.202 85.6285 207.653 85.8585 206.993C85.9585 206.705 86.0025 206.468 86.0029 206.168C86.004 205.928 85.9853 205.717 85.9229 205.484Z" fill="#A1A1A1" fill-opacity="0.33"/>
<path d="M68.4906 188.201C68.5939 188.357 68.6612 188.46 68.7807 188.585C69.6491 189.497 71.0401 189.711 72.4388 189.145C73.2996 188.797 74.0778 188.175 74.6396 187.385C75.4371 186.263 75.7109 184.897 75.3511 183.809C75.2567 183.526 75.118 183.248 74.9523 183.022C74.6096 182.555 74.146 182.227 73.5941 182.048C73.2629 181.94 72.9021 181.879 72.5189 181.886C72.2237 181.892 71.8464 181.945 71.5312 182.033C71.2956 182.1 71.2321 182.128 70.9197 182.269C70.5997 182.413 70.5364 182.45 70.3127 182.593C69.238 183.278 68.4138 184.379 68.1215 185.546C67.9288 186.316 67.9722 187.061 68.2312 187.724C68.2762 187.838 68.4206 188.094 68.4906 188.201Z" fill="#A1A1A1" fill-opacity="0.33"/>
<path d="M89.48 196.252C89.4359 196.121 89.2814 195.812 89.2008 195.682C88.8304 195.085 88.2686 194.603 87.5213 194.26C87.3876 194.198 87.0654 194.079 86.9112 194.032C85.6194 193.634 84.1367 193.696 82.8063 194.2C82.631 194.267 82.1756 194.466 82.0314 194.547C81.2585 194.987 80.6791 195.534 80.3015 196.174C79.8071 197.009 79.7228 197.917 80.0747 198.76C80.3038 199.307 80.7521 199.826 81.3213 200.209C82.7491 201.171 84.8582 201.328 86.7078 200.624C86.864 200.565 87.2966 200.374 87.4196 200.305C88.1977 199.87 88.7813 199.323 89.1614 198.7C89.6459 197.902 89.7555 197.074 89.48 196.252Z" fill="#A1A1A1" fill-opacity="0.33"/>
<path d="M101.085 143.484C100.993 143.296 100.925 143.189 100.831 143.045C100.467 142.485 99.9623 142.035 99.3221 141.687C99.0606 141.545 98.7644 141.421 98.4309 141.302C98.098 141.183 97.7384 141.074 97.3258 140.974C96.8924 140.869 96.5344 140.794 95.5623 140.606C94.3052 140.363 93.686 140.218 93.0116 140.013C92.5237 139.865 92.097 139.707 91.6201 139.492C90.57 139.017 89.5272 138.752 88.5008 138.702C87.6173 138.659 86.8131 138.772 86.0662 139.048C85.931 139.098 85.6028 139.245 85.4806 139.311C84.6945 139.732 84.0972 140.309 83.7074 141.059C83.3925 141.667 83.2173 142.395 83.2386 143.021C83.2695 143.938 83.6339 144.795 84.416 145.839C84.658 146.164 84.9809 146.563 85.5218 147.184C86.2888 148.067 86.6791 148.57 86.9905 149.062C87.4358 149.765 87.771 150.599 88.0278 151.673C88.1065 151.998 88.1735 152.298 88.3086 153.002C88.4656 153.82 88.5268 154.136 88.6305 154.518C88.702 154.779 88.807 155.075 88.8838 155.267C88.9043 155.318 88.9252 155.375 88.9293 155.388C88.9347 155.4 88.9967 155.553 89.0801 155.72C89.2417 156.046 89.2885 156.11 89.437 156.319C89.8849 156.948 90.5335 157.472 91.3156 157.832C91.4324 157.887 91.7692 158.013 91.8945 158.049C92.6512 158.272 93.4227 158.29 94.1747 158.093C94.4378 158.026 94.615 157.962 94.8818 157.842C95.0801 157.753 95.1969 157.685 95.3581 157.589C96.2957 157.034 97.0835 156.174 97.6722 155.045C97.9547 154.503 98.1792 153.921 98.365 153.253C98.5488 152.594 98.7358 152.11 99.0202 151.517C99.2874 150.962 99.54 150.52 100.105 149.614C100.579 148.856 100.758 148.573 100.931 148.253C101.414 147.358 101.639 146.612 101.658 145.854C101.677 145.107 101.483 144.298 101.085 143.484Z" fill="#A1A1A1" fill-opacity="0.33"/>
<path d="M106.076 140.152C107.123 139.481 107.902 138.551 108.303 137.505C108.528 136.917 108.611 136.294 108.53 135.729C108.445 135.132 108.18 134.579 107.77 134.152C107.527 133.899 107.261 133.708 106.921 133.541C106.817 133.491 106.461 133.357 106.343 133.324C105.54 133.104 104.632 133.142 103.732 133.414C103.467 133.495 103.403 133.523 103.057 133.678C102.703 133.837 102.603 133.879 102.35 134.034C100.938 134.901 99.9789 136.265 99.8064 137.648C99.7363 138.203 99.8055 138.735 100.003 139.22C100.042 139.317 100.148 139.516 100.204 139.606C100.397 139.918 100.648 140.201 100.947 140.418C101.044 140.489 101.239 140.6 101.343 140.653C102.288 141.142 103.529 141.179 104.747 140.774C105.196 140.624 105.673 140.41 106.076 140.152Z" fill="#A1A1A1" fill-opacity="0.33"/>
<path d="M109.579 153.887C109.534 153.719 109.501 153.609 109.42 153.431C109.195 152.946 108.844 152.539 108.375 152.161C108.005 151.864 107.639 151.641 107.173 151.452C107.035 151.396 106.911 151.345 106.766 151.3C105.757 150.989 104.604 150.966 103.622 151.243C102.39 151.59 101.485 152.365 101.149 153.332C100.952 153.899 100.964 154.519 101.187 155.104C101.201 155.14 101.264 155.262 101.322 155.378C101.435 155.602 101.476 155.676 101.601 155.844C102.048 156.443 102.738 156.944 103.517 157.251C103.919 157.409 104.265 157.513 104.675 157.581C105.635 157.74 106.57 157.654 107.427 157.337C107.578 157.282 107.958 157.104 108.082 157.031C108.805 156.606 109.284 156.057 109.514 155.397C109.614 155.109 109.658 154.872 109.659 154.572C109.66 154.332 109.641 154.12 109.579 153.887Z" fill="#A1A1A1" fill-opacity="0.33"/>
<path d="M92.1454 136.604C92.2488 136.761 92.316 136.863 92.4355 136.988C93.304 137.901 94.6949 138.115 96.0936 137.549C96.9544 137.2 97.7327 136.578 98.2944 135.788C99.092 134.666 99.3657 133.3 99.0059 132.212C98.9116 131.929 98.7728 131.651 98.6071 131.425C98.2645 130.959 97.8009 130.63 97.249 130.452C96.9178 130.344 96.5569 130.283 96.1737 130.289C95.8785 130.295 95.5012 130.348 95.1861 130.436C94.9505 130.503 94.8869 130.532 94.5745 130.672C94.2545 130.816 94.1913 130.854 93.9675 130.997C92.8928 131.682 92.0686 132.782 91.7763 133.95C91.5836 134.719 91.627 135.464 91.8861 136.127C91.931 136.242 92.0754 136.498 92.1454 136.604Z" fill="#A1A1A1" fill-opacity="0.33"/>
<path d="M113.136 144.658C113.092 144.526 112.938 144.217 112.857 144.087C112.487 143.49 111.925 143.009 111.177 142.666C111.044 142.604 110.721 142.485 110.567 142.437C109.276 142.039 107.793 142.101 106.462 142.605C106.287 142.672 105.832 142.871 105.688 142.953C104.915 143.392 104.335 143.94 103.958 144.579C103.463 145.414 103.379 146.322 103.731 147.165C103.96 147.713 104.408 148.231 104.977 148.614C106.405 149.577 108.514 149.733 110.364 149.03C110.52 148.971 110.953 148.78 111.076 148.71C111.854 148.275 112.437 147.728 112.818 147.105C113.302 146.307 113.412 145.479 113.136 144.658Z" fill="#A1A1A1" fill-opacity="0.33"/>
<path d="M150.653 144.293C150.529 144.123 150.443 144.029 150.326 143.903C149.87 143.411 149.295 143.055 148.607 142.824C148.326 142.729 148.014 142.659 147.667 142.6C147.32 142.54 146.949 142.496 146.528 142.47C146.086 142.443 145.723 142.432 144.739 142.418C143.468 142.4 142.837 142.365 142.141 142.282C141.638 142.221 141.192 142.141 140.688 142.012C139.576 141.727 138.51 141.65 137.498 141.781C136.628 141.895 135.863 142.15 135.183 142.556C135.06 142.629 134.766 142.832 134.659 142.92C133.967 143.476 133.488 144.153 133.243 144.966C133.045 145.624 133.006 146.377 133.14 146.994C133.336 147.897 133.847 148.682 134.8 149.579C135.095 149.857 135.482 150.196 136.123 150.715C137.032 151.455 137.504 151.884 137.897 152.316C138.459 152.935 138.937 153.702 139.382 154.721C139.518 155.029 139.637 155.314 139.897 155.988C140.198 156.772 140.315 157.073 140.485 157.434C140.602 157.679 140.758 157.955 140.868 158.131C140.897 158.179 140.928 158.231 140.934 158.243C140.942 158.255 141.03 158.395 141.142 158.545C141.359 158.84 141.416 158.895 141.599 159.076C142.15 159.62 142.878 160.025 143.707 160.243C143.831 160.277 144.183 160.342 144.312 160.356C145.091 160.442 145.848 160.324 146.547 159.996C146.791 159.882 146.953 159.787 147.192 159.621C147.369 159.498 147.471 159.41 147.611 159.286C148.427 158.571 149.04 157.579 149.411 156.355C149.589 155.768 149.703 155.151 149.764 154.457C149.824 153.771 149.919 153.257 150.09 152.62C150.25 152.022 150.417 151.54 150.805 150.542C151.13 149.706 151.254 149.394 151.366 149.046C151.675 148.074 151.76 147.295 151.642 146.54C151.525 145.797 151.189 145.029 150.653 144.293Z" fill="#A1A1A1" fill-opacity="0.33"/>
<path d="M154.925 140.105C155.826 139.255 156.418 138.195 156.621 137.088C156.735 136.465 156.703 135.833 156.522 135.287C156.331 134.711 155.972 134.21 155.494 133.859C155.211 133.652 154.917 133.509 154.555 133.404C154.444 133.372 154.072 133.303 153.951 133.291C153.127 133.215 152.247 133.413 151.417 133.843C151.173 133.97 151.115 134.009 150.806 134.224C150.488 134.445 150.398 134.503 150.179 134.702C148.957 135.811 148.267 137.333 148.349 138.734C148.381 139.297 148.545 139.811 148.825 140.258C148.881 140.347 149.021 140.525 149.091 140.604C149.336 140.88 149.633 141.116 149.964 141.278C150.071 141.331 150.282 141.406 150.393 141.441C151.405 141.757 152.624 141.575 153.739 140.958C154.151 140.729 154.578 140.433 154.925 140.105Z" fill="#A1A1A1" fill-opacity="0.33"/>
<path d="M160.83 153.099C160.757 152.94 160.705 152.837 160.593 152.675C160.286 152.234 159.869 151.892 159.343 151.601C158.928 151.373 158.53 151.216 158.04 151.112C157.895 151.081 157.765 151.051 157.616 151.033C156.574 150.903 155.444 151.084 154.535 151.533C153.394 152.095 152.65 153.023 152.497 154.041C152.408 154.638 152.532 155.251 152.855 155.791C152.875 155.824 152.958 155.934 153.036 156.038C153.187 156.24 153.24 156.306 153.393 156.451C153.938 156.965 154.702 157.34 155.519 157.506C155.94 157.592 156.297 157.634 156.709 157.628C157.676 157.616 158.573 157.365 159.353 156.899C159.49 156.818 159.829 156.574 159.937 156.48C160.566 155.93 160.935 155.301 161.04 154.607C161.086 154.303 161.086 154.06 161.032 153.763C160.99 153.525 160.934 153.319 160.83 153.099Z" fill="#A1A1A1" fill-opacity="0.33"/>
<path d="M140.679 139.057C140.808 139.194 140.892 139.283 141.032 139.386C142.045 140.137 143.442 140.102 144.706 139.294C145.483 138.796 146.131 138.042 146.537 137.159C147.113 135.906 147.133 134.504 146.585 133.489C146.442 133.226 146.256 132.974 146.053 132.78C145.634 132.378 145.122 132.135 144.551 132.055C144.208 132.007 143.844 132.01 143.471 132.085C143.184 132.143 142.825 132.262 142.533 132.405C142.315 132.513 142.258 132.553 141.979 132.748C141.692 132.947 141.637 132.995 141.444 133.177C140.519 134.046 139.913 135.283 139.838 136.491C139.789 137.288 139.966 138.019 140.339 138.63C140.404 138.735 140.591 138.964 140.679 139.057Z" fill="#A1A1A1" fill-opacity="0.33"/>
<path d="M162.635 143.32C162.568 143.198 162.361 142.919 162.259 142.805C161.789 142.278 161.154 141.9 160.362 141.693C160.22 141.655 159.884 141.594 159.725 141.574C158.391 141.409 156.954 141.733 155.746 142.468C155.587 142.565 155.178 142.843 155.052 142.95C154.377 143.522 153.91 144.167 153.657 144.868C153.325 145.783 153.407 146.698 153.903 147.471C154.226 147.973 154.757 148.407 155.382 148.687C156.951 149.388 159.039 149.169 160.718 148.144C160.86 148.058 161.248 147.792 161.356 147.702C162.037 147.133 162.508 146.487 162.766 145.803C163.095 144.926 163.053 144.086 162.635 143.32Z" fill="#A1A1A1" fill-opacity="0.33"/>
<path d="M29.8482 180.865C29.7469 180.681 29.6736 180.577 29.5731 180.438C29.1822 179.895 28.656 179.47 28.0002 179.154C27.7323 179.025 27.4308 178.916 27.0923 178.813C26.7544 178.71 26.3905 178.619 25.9741 178.539C25.5369 178.456 25.1762 178.399 24.1978 178.259C22.9324 178.078 22.308 177.964 21.6254 177.792C21.1316 177.668 20.6982 177.532 20.212 177.34C19.1412 176.917 18.0883 176.704 17.0628 176.705C16.18 176.706 15.3842 176.859 14.6538 177.173C14.5216 177.229 14.202 177.392 14.0835 177.465C13.3214 177.925 12.7553 178.532 12.4051 179.303C12.122 179.926 11.9844 180.664 12.0375 181.289C12.1149 182.206 12.5217 183.045 13.3543 184.051C13.6119 184.364 13.9541 184.748 14.5248 185.342C15.3341 186.187 15.7487 186.671 16.0841 187.148C16.5637 187.83 16.9401 188.648 17.2507 189.709C17.3456 190.031 17.4276 190.327 17.5981 191.025C17.7962 191.837 17.8732 192.149 17.996 192.527C18.0805 192.784 18.2003 193.075 18.2866 193.264C18.3096 193.314 18.3333 193.369 18.338 193.382C18.344 193.395 18.4136 193.544 18.5052 193.707C18.6828 194.025 18.7327 194.087 18.8914 194.289C19.3698 194.896 20.0428 195.389 20.8407 195.71C20.9599 195.759 21.302 195.868 21.4288 195.898C22.1942 196.083 22.9642 196.063 23.7037 195.829C23.9625 195.748 24.1358 195.675 24.3956 195.542C24.5887 195.443 24.7017 195.369 24.8575 195.265C25.7639 194.664 26.5053 193.763 27.0347 192.604C27.2887 192.047 27.4829 191.454 27.6341 190.777C27.7838 190.108 27.9456 189.614 28.1989 189.006C28.437 188.437 28.6663 187.983 29.1834 187.048C29.6168 186.266 29.7809 185.973 29.9377 185.645C30.3729 184.725 30.5593 183.968 30.5399 183.207C30.521 182.46 30.2865 181.659 29.8482 180.865Z" fill="#A1A1A1" fill-opacity="0.33"/>
<path d="M34.6534 177.281C35.6626 176.558 36.3918 175.588 36.7388 174.522C36.9332 173.922 36.9838 173.294 36.8747 172.732C36.7597 172.139 36.4672 171.599 36.0366 171.192C35.7818 170.951 35.5068 170.773 35.1601 170.623C35.0538 170.578 34.6918 170.462 34.573 170.435C33.7611 170.254 32.8577 170.337 31.9746 170.655C31.7151 170.749 31.6523 170.78 31.3154 170.953C30.9703 171.13 30.8731 171.176 30.6285 171.344C29.2656 172.282 28.379 173.694 28.2773 175.087C28.2356 175.646 28.3317 176.175 28.5528 176.651C28.597 176.746 28.713 176.939 28.7729 177.027C28.9815 177.33 29.2462 177.6 29.5554 177.803C29.6548 177.869 29.8556 177.97 29.9616 178.018C30.9286 178.46 32.1676 178.436 33.3603 177.97C33.8005 177.797 34.2649 177.559 34.6534 177.281Z" fill="#A1A1A1" fill-opacity="0.33"/>
<path d="M38.8438 190.852C38.791 190.686 38.7525 190.578 38.662 190.404C38.4138 189.93 38.0433 189.54 37.5567 189.185C37.1724 188.906 36.7962 188.701 36.3219 188.536C36.1816 188.486 36.0552 188.441 35.9091 188.403C34.8872 188.143 33.7371 188.177 32.7728 188.503C31.5623 188.911 30.6992 189.732 30.4139 190.716C30.2464 191.294 30.29 191.914 30.542 192.488C30.5574 192.523 30.6261 192.643 30.6902 192.755C30.814 192.974 30.8584 193.046 30.992 193.208C31.4677 193.785 32.1811 194.253 32.9731 194.521C33.382 194.659 33.732 194.746 34.1437 194.794C35.1091 194.905 36.0364 194.772 36.8748 194.412C37.0219 194.349 37.3919 194.153 37.5117 194.073C38.2105 193.612 38.6606 193.038 38.8563 192.367C38.9413 192.073 38.9731 191.834 38.9582 191.533C38.9472 191.293 38.9178 191.083 38.8438 190.852Z" fill="#A1A1A1" fill-opacity="0.33"/>
<path d="M20.5889 174.424C20.6999 174.575 20.7721 174.674 20.8975 174.794C21.8095 175.664 23.2068 175.808 24.5721 175.172C25.4124 174.781 26.1564 174.12 26.6762 173.301C27.414 172.138 27.6175 170.758 27.2036 169.687C27.0951 169.409 26.9427 169.137 26.766 168.919C26.4008 168.469 25.922 168.164 25.3629 168.013C25.0273 167.921 24.6646 167.878 24.283 167.904C23.989 167.924 23.6156 167.996 23.306 168.1C23.0746 168.179 23.0127 168.21 22.7085 168.367C22.3968 168.526 22.3357 168.567 22.12 168.721C21.0836 169.46 20.3181 170.603 20.0861 171.785C19.9332 172.565 20.0143 173.309 20.3062 173.959C20.3568 174.072 20.5137 174.321 20.5889 174.424Z" fill="#A1A1A1" fill-opacity="0.33"/>
<path d="M41.9192 181.439C41.8685 181.309 41.6989 181.008 41.612 180.882C41.2125 180.303 40.628 179.849 39.8658 179.542C39.7293 179.487 39.4021 179.384 39.2461 179.344C37.9383 179.01 36.4636 179.146 35.1632 179.717C34.9919 179.792 34.5481 180.014 34.4085 180.103C33.6605 180.581 33.1109 181.158 32.767 181.817C32.3166 182.677 32.2788 183.59 32.6724 184.416C32.9286 184.953 33.4017 185.449 33.9886 185.804C35.4606 186.696 37.5706 186.748 39.3784 185.952C39.5311 185.885 39.9526 185.672 40.0716 185.597C40.825 185.123 41.3789 184.546 41.7261 183.904C42.1685 183.081 42.2356 182.247 41.9192 181.439Z" fill="#A1A1A1" fill-opacity="0.33"/>
<path d="M148.401 78.1055C148.209 78.0188 148.088 77.9797 147.924 77.9287C147.287 77.7288 146.621 77.7073 145.925 77.8538C145.64 77.9135 145.343 78.01 145.021 78.1343C144.7 78.2583 144.366 78.4081 144 78.5989C143.615 78.7999 143.306 78.9747 142.475 79.4619C141.4 80.0919 140.853 80.3822 140.227 80.6622C139.774 80.8648 139.359 81.0199 138.87 81.1629C137.791 81.4776 136.858 81.9511 136.079 82.5808C135.409 83.1235 134.9 83.7357 134.541 84.4377C134.476 84.5645 134.336 84.8929 134.291 85.0243C134.001 85.8648 133.951 86.7035 134.167 87.5427C134.343 88.2216 134.701 88.9036 135.133 89.3773C135.766 90.0723 136.601 90.5027 137.864 90.8067C138.256 90.9017 138.757 91.0027 139.563 91.1339C140.707 91.322 141.325 91.4594 141.879 91.6401C142.671 91.898 143.47 92.3297 144.371 92.9992C144.645 93.2014 144.893 93.3911 145.46 93.8519C146.119 94.3877 146.373 94.5935 146.703 94.824C146.928 94.9804 147.202 95.1429 147.385 95.2426C147.434 95.2693 147.487 95.2994 147.499 95.3072C147.511 95.3135 147.658 95.3917 147.829 95.4675C148.164 95.6164 148.24 95.6355 148.487 95.7017C149.232 95.9004 150.052 95.8861 150.859 95.6568C150.98 95.6232 151.309 95.502 151.424 95.4485C152.122 95.1288 152.694 94.64 153.109 93.9967C153.255 93.7724 153.341 93.607 153.455 93.3397C153.54 93.1414 153.579 93.0117 153.633 92.8322C153.945 91.7887 153.944 90.6047 153.619 89.3406C153.464 88.734 153.239 88.1342 152.93 87.4928C152.625 86.8593 152.438 86.3595 152.25 85.7123C152.074 85.1054 151.963 84.5963 151.771 83.522C151.61 82.6223 151.551 82.285 151.464 81.9224C151.219 80.9104 150.886 80.1827 150.395 79.5787C149.912 78.9846 149.232 78.4801 148.401 78.1055Z" fill="#A1A1A1" fill-opacity="0.33"/>
<path d="M149.807 72.2544C150.12 71.0494 150.067 69.8163 149.662 68.74C149.434 68.1348 149.079 67.5954 148.644 67.2073C148.185 66.7975 147.624 66.5394 147.042 66.4737C146.698 66.4351 146.377 66.4597 146.019 66.5506C145.91 66.5793 145.563 66.7073 145.456 66.7586C144.725 67.1104 144.091 67.7318 143.619 68.531C143.481 68.7664 143.453 68.8304 143.305 69.1766C143.153 69.5317 143.108 69.6287 143.028 69.9149C142.58 71.5109 142.791 73.1991 143.587 74.3894C143.905 74.868 144.31 75.2374 144.776 75.4875C144.869 75.5373 145.079 75.6226 145.179 75.6567C145.527 75.7742 145.898 75.831 146.26 75.8053C146.377 75.7975 146.593 75.7561 146.704 75.7305C147.715 75.4951 148.642 74.7153 149.256 73.6058C149.482 73.1961 149.686 72.7183 149.807 72.2544Z" fill="#A1A1A1" fill-opacity="0.33"/>
<path d="M161.496 80.6763C161.352 80.5743 161.255 80.5105 161.077 80.425C160.591 80.1929 160.065 80.104 159.473 80.1156C159.006 80.1256 158.592 80.1901 158.128 80.347C157.99 80.3932 157.866 80.4339 157.731 80.4933C156.791 80.9089 155.938 81.6421 155.41 82.498C154.746 83.5718 154.605 84.7659 155.005 85.7383C155.24 86.3091 155.661 86.7845 156.212 87.0946C156.246 87.1138 156.373 87.1686 156.493 87.2206C156.723 87.3213 156.802 87.3524 157.006 87.402C157.729 87.5773 158.564 87.5185 159.334 87.2498C159.731 87.1108 160.051 86.9665 160.394 86.7524C161.197 86.2504 161.819 85.5739 162.23 84.7679C162.303 84.6267 162.461 84.2403 162.502 84.1025C162.744 83.2999 162.726 82.5594 162.454 81.8952C162.335 81.6054 162.209 81.3919 162.01 81.1578C161.851 80.97 161.697 80.8177 161.496 80.6763Z" fill="#A1A1A1" fill-opacity="0.33"/>
<path d="M137.329 78.569C137.508 78.6236 137.625 78.6595 137.795 78.6792C139.033 78.8246 140.186 78.0845 140.825 76.7316C141.218 75.8989 141.369 74.9067 141.251 73.9249C141.083 72.5303 140.373 71.2875 139.387 70.6739C139.13 70.5149 138.844 70.3883 138.573 70.3204C138.014 70.1801 137.458 70.2262 136.939 70.4468C136.626 70.5784 136.324 70.7663 136.05 71.0211C135.839 71.2181 135.601 71.5053 135.431 71.7796C135.304 71.9853 135.277 72.049 135.144 72.3622C135.007 72.6828 134.986 72.7534 134.919 73.0107C134.594 74.2452 134.729 75.6403 135.293 76.7405C135.666 77.4662 136.193 78.0185 136.823 78.3665C136.932 78.4262 137.207 78.5317 137.329 78.569Z" fill="#A1A1A1" fill-opacity="0.33"/>
<path d="M157.933 71.1647C157.813 71.0909 157.496 70.9511 157.351 70.9023C156.684 70.6783 155.955 70.6691 155.184 70.8888C155.046 70.9277 154.733 71.0449 154.589 71.1083C153.386 71.6402 152.351 72.6554 151.72 73.9151C151.637 74.0814 151.439 74.5338 151.389 74.6913C151.12 75.5373 151.064 76.3421 151.216 77.0866C151.412 78.0596 151.956 78.8222 152.772 79.25C153.303 79.5274 153.974 79.6392 154.643 79.567C156.32 79.3863 157.956 78.1333 158.831 76.3794C158.905 76.2316 159.092 75.8007 159.135 75.6665C159.41 74.8202 159.47 74.0133 159.331 73.2803C159.152 72.3425 158.68 71.6253 157.933 71.1647Z" fill="#A1A1A1" fill-opacity="0.33"/>
<path d="M190.364 56.1299C190.161 56.0752 190.036 56.0561 189.867 56.0322C189.21 55.9379 188.553 56.0255 187.896 56.2848C187.627 56.3907 187.352 56.5352 187.057 56.7112C186.763 56.8868 186.462 57.0901 186.135 57.3395C185.792 57.6019 185.517 57.8262 184.785 58.4458C183.837 59.2472 183.35 59.6247 182.784 60.0052C182.374 60.2804 181.993 60.5023 181.538 60.7244C180.534 61.2132 179.698 61.836 179.041 62.5887C178.475 63.2371 178.079 63.9282 177.845 64.6839C177.802 64.8204 177.719 65.1696 177.697 65.3073C177.553 66.1893 177.644 67.0303 177.997 67.8281C178.282 68.4735 178.747 69.0922 179.249 69.492C179.985 70.0785 180.875 70.3693 182.164 70.4645C182.563 70.4949 183.07 70.5133 183.882 70.5117C185.035 70.5114 185.663 70.5467 186.236 70.6355C187.054 70.7621 187.909 71.0602 188.904 71.5775C189.205 71.7336 189.48 71.8814 190.112 72.2462C190.847 72.6705 191.131 72.8333 191.493 73.0082C191.739 73.1266 192.035 73.2432 192.231 73.3122C192.284 73.3307 192.34 73.352 192.353 73.3578C192.366 73.362 192.523 73.4157 192.704 73.463C193.056 73.556 193.134 73.5626 193.387 73.5879C194.15 73.6634 194.95 73.5152 195.703 73.1554C195.816 73.1023 196.118 72.9282 196.222 72.8562C196.852 72.4247 197.331 71.8457 197.63 71.1391C197.736 70.8924 197.792 70.7142 197.859 70.4301C197.909 70.2193 197.926 70.0842 197.949 69.8972C198.08 68.8101 197.881 67.6344 197.352 66.4323C197.098 65.8555 196.778 65.2966 196.368 64.7104C195.963 64.1312 195.697 63.6655 195.404 63.0536C195.131 62.4797 194.938 61.9924 194.569 60.9571C194.261 60.0901 194.148 59.7647 194.002 59.4189C193.592 58.4542 193.145 57.786 192.563 57.2666C191.99 56.7557 191.24 56.3659 190.364 56.1299Z" fill="#A1A1A1" fill-opacity="0.33"/>
<path d="M190.763 50.0881C190.869 48.8402 190.61 47.6246 190.035 46.6221C189.71 46.0584 189.272 45.5808 188.781 45.2666C188.263 44.9348 187.671 44.7702 187.089 44.8002C186.746 44.8182 186.436 44.8951 186.101 45.0438C185.999 45.0901 185.679 45.2741 185.583 45.3425C184.926 45.8113 184.409 46.5321 184.08 47.4028C183.984 47.6592 183.967 47.7273 183.88 48.0953C183.791 48.4726 183.763 48.5763 183.732 48.8737C183.56 50.5316 184.049 52.1733 185.027 53.2251C185.419 53.6482 185.877 53.9489 186.375 54.121C186.475 54.1552 186.694 54.2057 186.798 54.2231C187.159 54.2828 187.532 54.2786 187.882 54.1939C187.995 54.1671 188.199 54.0907 188.304 54.0471C189.256 53.6479 190.033 52.7221 190.449 51.52C190.603 51.0762 190.722 50.5685 190.763 50.0881Z" fill="#A1A1A1" fill-opacity="0.33"/>
<path d="M203.62 56.5407C203.462 56.4629 203.356 56.4154 203.168 56.3596C202.653 56.2086 202.123 56.2064 201.545 56.3147C201.089 56.4009 200.694 56.5328 200.266 56.7645C200.139 56.8328 200.023 56.8936 199.902 56.9745C199.05 57.541 198.337 58.4085 197.963 59.3446C197.492 60.5194 197.553 61.7283 198.107 62.6284C198.432 63.1568 198.925 63.5599 199.516 63.7777C199.553 63.7913 199.686 63.8248 199.812 63.857C200.055 63.9192 200.137 63.9372 200.345 63.9532C201.082 64.0091 201.89 63.8141 202.6 63.4214C202.966 63.2184 203.256 63.0227 203.556 62.7541C204.259 62.1242 204.755 61.3509 205.023 60.4833C205.07 60.3312 205.16 59.9217 205.178 59.7782C205.281 58.9417 205.14 58.2092 204.762 57.5942C204.597 57.3259 204.438 57.1345 204.204 56.9347C204.017 56.7743 203.84 56.6482 203.62 56.5407Z" fill="#A1A1A1" fill-opacity="0.33"/>
<path d="M179.595 58.4015C179.78 58.4264 179.901 58.443 180.071 58.4347C181.308 58.3765 182.313 57.4532 182.713 56.0054C182.959 55.1142 182.941 54.1043 182.662 53.1487C182.264 51.7915 181.361 50.6736 180.293 50.2254C180.015 50.1096 179.713 50.0307 179.437 50.0075C178.865 49.9597 178.329 50.0963 177.857 50.4003C177.573 50.5821 177.308 50.8181 177.082 51.116C176.909 51.346 176.723 51.6702 176.602 51.9704C176.512 52.1954 176.496 52.263 176.418 52.5958C176.338 52.9365 176.329 53.01 176.306 53.2765C176.195 54.5553 176.559 55.9187 177.296 56.9188C177.782 57.5784 178.391 58.0406 179.066 58.2831C179.183 58.3247 179.47 58.3844 179.595 58.4015Z" fill="#A1A1A1" fill-opacity="0.33"/>
<path d="M198.541 47.6785C198.412 47.6248 198.077 47.538 197.927 47.5132C197.237 47.3998 196.521 47.5098 195.803 47.854C195.674 47.9153 195.386 48.0829 195.256 48.1694C194.167 48.8942 193.322 50.0716 192.915 51.4256C192.861 51.6043 192.743 52.0858 192.72 52.2504C192.598 53.1345 192.677 53.9427 192.95 54.6573C193.305 55.5912 193.965 56.2595 194.836 56.5508C195.403 56.7394 196.078 56.7408 196.721 56.5597C198.334 56.106 199.727 54.5943 200.292 52.7098C200.34 52.5509 200.451 52.0924 200.47 51.9521C200.599 51.0667 200.523 50.2558 200.264 49.5506C199.932 48.6487 199.35 48.0137 198.541 47.6785Z" fill="#A1A1A1" fill-opacity="0.33"/>
</svg>
