<svg width="20" height="20" viewBox="0 0 20 20" fill="none" xmlns="http://www.w3.org/2000/svg">
<path fill-rule="evenodd" clip-rule="evenodd" d="M10 11.6665H7.5C7.04 11.6665 6.66666 11.2932 6.66666 10.8332C6.66666 10.3732 7.04 9.99984 7.5 9.99984H10C10.46 9.99984 10.8333 10.3732 10.8333 10.8332C10.8333 11.2932 10.46 11.6665 10 11.6665ZM6.66666 14.1665C6.66666 13.7065 7.04 13.3332 7.5 13.3332H12.5C12.9608 13.3332 13.3333 13.7065 13.3333 14.1665C13.3333 14.6265 12.9608 14.9998 12.5 14.9998H7.5C7.04 14.9998 6.66666 14.6265 6.66666 14.1665ZM14.5369 16.6665H5.46275C5.20775 16.6665 5.00025 16.4798 5.00025 16.2498V3.74984C5.00025 3.51984 5.20775 3.33317 5.46275 3.33317H10.0003V5.95817C10.0003 7.26817 11.0144 8.33317 12.2619 8.33317H15.0003V16.2498C15.0003 16.4798 14.7928 16.6665 14.5369 16.6665ZM11.6669 4.14817L13.9519 6.6665H12.2619C11.9336 6.6665 11.6669 6.349 11.6669 5.95817V4.14817ZM16.4503 6.93984L11.9136 1.93984C11.7553 1.76567 11.5319 1.6665 11.2961 1.6665H5.46275C4.28859 1.6665 3.33359 2.6015 3.33359 3.74984V16.2498C3.33359 17.3982 4.28859 18.3332 5.46275 18.3332H14.5369C15.7111 18.3332 16.6669 17.3982 16.6669 16.2498V7.49984C16.6669 7.29234 16.5894 7.09317 16.4503 6.93984Z" fill="#2A8BF2"/>
<mask id="mask0_1179_15247" style="mask-type:luminance" maskUnits="userSpaceOnUse" x="3" y="1" width="14" height="18">
<path fill-rule="evenodd" clip-rule="evenodd" d="M10 11.6665H7.5C7.04 11.6665 6.66666 11.2932 6.66666 10.8332C6.66666 10.3732 7.04 9.99984 7.5 9.99984H10C10.46 9.99984 10.8333 10.3732 10.8333 10.8332C10.8333 11.2932 10.46 11.6665 10 11.6665ZM6.66666 14.1665C6.66666 13.7065 7.04 13.3332 7.5 13.3332H12.5C12.9608 13.3332 13.3333 13.7065 13.3333 14.1665C13.3333 14.6265 12.9608 14.9998 12.5 14.9998H7.5C7.04 14.9998 6.66666 14.6265 6.66666 14.1665ZM14.5369 16.6665H5.46275C5.20775 16.6665 5.00025 16.4798 5.00025 16.2498V3.74984C5.00025 3.51984 5.20775 3.33317 5.46275 3.33317H10.0003V5.95817C10.0003 7.26817 11.0144 8.33317 12.2619 8.33317H15.0003V16.2498C15.0003 16.4798 14.7928 16.6665 14.5369 16.6665ZM11.6669 4.14817L13.9519 6.6665H12.2619C11.9336 6.6665 11.6669 6.349 11.6669 5.95817V4.14817ZM16.4503 6.93984L11.9136 1.93984C11.7553 1.76567 11.5319 1.6665 11.2961 1.6665H5.46275C4.28859 1.6665 3.33359 2.6015 3.33359 3.74984V16.2498C3.33359 17.3982 4.28859 18.3332 5.46275 18.3332H14.5369C15.7111 18.3332 16.6669 17.3982 16.6669 16.2498V7.49984C16.6669 7.29234 16.5894 7.09317 16.4503 6.93984Z" fill="white"/>
</mask>
<g mask="url(#mask0_1179_15247)">
<rect width="20" height="20" fill="#2A8BF2"/>
</g>
</svg>
