<svg width="18" height="16" viewBox="0 0 18 16" fill="none" xmlns="http://www.w3.org/2000/svg">
<path d="M5.88727 4.48545C5.52828 4.48545 5.23727 4.77647 5.23727 5.13545C5.23727 5.49444 5.52828 5.78545 5.88727 5.78545V4.48545ZM12.0195 5.78545C12.3785 5.78545 12.6695 5.49444 12.6695 5.13545C12.6695 4.77647 12.3785 4.48545 12.0195 4.48545V5.78545ZM5.88727 7.51882C5.52828 7.51882 5.23727 7.80983 5.23727 8.16882C5.23727 8.5278 5.52828 8.81882 5.88727 8.81882V7.51882ZM8.95339 8.81882C9.31237 8.81882 9.60338 8.5278 9.60338 8.16882C9.60338 7.80983 9.31237 7.51882 8.95339 7.51882V8.81882ZM16.4516 11.1324L17.0295 11.43L17.0295 11.43L16.4516 11.1324ZM15.7816 11.7952L16.0742 12.3756L15.7816 11.7952ZM15.7816 1.50906L16.0742 0.928632V0.928632L15.7816 1.50906ZM16.4516 2.17187L17.0295 1.87426L17.0295 1.87426L16.4516 2.17187ZM2.12515 1.50906L2.41773 2.08949L2.41773 2.08949L2.12515 1.50906ZM1.45518 2.17187L2.03304 2.46949H2.03304L1.45518 2.17187ZM2.21355 14.5283L2.58586 15.0611L2.58593 15.0611L2.21355 14.5283ZM5.25096 12.4053L4.87858 11.8725H4.87858L5.25096 12.4053ZM1.35728 14.5977L1.88804 14.2225H1.88804L1.35728 14.5977ZM2.13383 14.5755L1.84595 13.9928L1.84594 13.9928L2.13383 14.5755ZM1.61533 14.7555L1.52132 15.3986H1.52132L1.61533 14.7555ZM2.1848 14.5479L1.83702 13.9988L1.83692 13.9989L2.1848 14.5479ZM2.16481 14.5598L1.85084 13.9906L1.8508 13.9907L2.16481 14.5598ZM6.09291 11.9863L6.21094 12.6255L6.21094 12.6255L6.09291 11.9863ZM5.73433 12.0989L6.00322 12.6907L6.00323 12.6907L5.73433 12.0989ZM5.88727 5.78545H12.0195V4.48545H5.88727V5.78545ZM5.88727 8.81882H8.95339V7.51882H5.88727V8.81882ZM3.74098 1.99375H14.1658V0.69375H3.74098V1.99375ZM15.9687 3.77044V9.53383H17.2687V3.77044H15.9687ZM15.9687 9.53383C15.9687 9.96938 15.9682 10.2565 15.95 10.4765C15.9325 10.6886 15.9019 10.7801 15.8737 10.8348L17.0295 11.43C17.1684 11.1603 17.2213 10.8771 17.2456 10.5835C17.2692 10.2976 17.2687 9.9477 17.2687 9.53383H15.9687ZM14.1658 12.6105C14.5845 12.6105 14.9372 12.611 15.2251 12.5877C15.5204 12.5639 15.8039 12.5119 16.0742 12.3756L15.489 11.2148C15.4314 11.2439 15.3363 11.2745 15.1203 11.292C14.897 11.31 14.6057 11.3105 14.1658 11.3105V12.6105ZM15.8737 10.8348C15.79 10.9973 15.6558 11.1307 15.489 11.2148L16.0742 12.3756C16.4844 12.1689 16.8192 11.8383 17.0295 11.43L15.8737 10.8348ZM14.1658 1.99375C14.6057 1.99375 14.897 1.99424 15.1203 2.0123C15.3363 2.02976 15.4314 2.06041 15.489 2.08949L16.0742 0.928632C15.8039 0.792401 15.5204 0.740395 15.2251 0.716527C14.9372 0.693255 14.5845 0.69375 14.1658 0.69375V1.99375ZM17.2687 3.77044C17.2687 3.35657 17.2692 3.00666 17.2456 2.72079C17.2213 2.42713 17.1684 2.14399 17.0295 1.87426L15.8737 2.46949C15.9019 2.52419 15.9325 2.61563 15.95 2.82779C15.9682 3.04774 15.9687 3.33489 15.9687 3.77044H17.2687ZM15.489 2.08949C15.6558 2.17353 15.79 2.30696 15.8737 2.46949L17.0295 1.87426C16.8192 1.46602 16.4844 1.13541 16.0742 0.928632L15.489 2.08949ZM3.74098 0.69375C3.3223 0.69375 2.96961 0.693255 2.6817 0.716527C2.38641 0.740395 2.10282 0.792401 1.83257 0.928632L2.41773 2.08949C2.47542 2.06041 2.57045 2.02976 2.78644 2.0123C3.00982 1.99424 3.30107 1.99375 3.74098 1.99375V0.69375ZM1.93809 3.77044C1.93809 3.33489 1.9386 3.04774 1.95677 2.82779C1.97429 2.61563 2.00487 2.52419 2.03304 2.46949L0.877317 1.87426C0.738396 2.14399 0.68543 2.42713 0.661178 2.72079C0.63757 3.00666 0.638086 3.35657 0.638086 3.77044H1.93809ZM1.83257 0.928632C1.42237 1.1354 1.08757 1.46602 0.877317 1.87426L2.03304 2.46949C2.11675 2.30696 2.251 2.17353 2.41773 2.08949L1.83257 0.928632ZM14.1658 11.3105H6.66636V12.6105H14.1658V11.3105ZM2.58593 15.0611L5.62335 12.938L4.87858 11.8725L1.84117 13.9956L2.58593 15.0611ZM0.638086 14.0123C0.638086 14.162 0.637424 14.3195 0.649499 14.45C0.661517 14.5799 0.692496 14.7833 0.826525 14.9729L1.88804 14.2225C1.92118 14.2693 1.93621 14.3108 1.9423 14.3322C1.94751 14.3504 1.94616 14.354 1.94397 14.3303C1.94183 14.3072 1.94004 14.2719 1.93907 14.2159C1.93811 14.1602 1.93809 14.0952 1.93809 14.0123H0.638086ZM1.84594 13.9928C1.77914 14.0258 1.7266 14.0515 1.68186 14.0723C1.63678 14.0933 1.60839 14.1053 1.59027 14.112C1.54623 14.1284 1.6059 14.0972 1.70934 14.1123L1.52132 15.3986C1.73841 15.4304 1.92417 15.3749 2.04439 15.3301C2.16386 15.2856 2.29685 15.22 2.42173 15.1583L1.84594 13.9928ZM0.826525 14.9729C0.990513 15.2049 1.2423 15.3579 1.52132 15.3986L1.70934 14.1123C1.77978 14.1226 1.84489 14.1614 1.88804 14.2225L0.826525 14.9729ZM1.93809 14.0123V3.77044H0.638086V14.0123H1.93809ZM1.84124 13.9955C1.83753 13.9981 1.83493 13.9999 1.83271 14.0015C1.83052 14.003 1.82948 14.0037 1.82906 14.004C1.8285 14.0044 1.83183 14.0021 1.83702 13.9988L2.53258 15.0971C2.55524 15.0827 2.57632 15.0678 2.58586 15.0611L1.84124 13.9955ZM2.42172 15.1583C2.43242 15.153 2.45537 15.1418 2.47882 15.1289L1.8508 13.9907C1.85604 13.9878 1.8596 13.986 1.8591 13.9862C1.85867 13.9864 1.85757 13.987 1.85521 13.9882C1.85281 13.9894 1.84998 13.9908 1.84595 13.9928L2.42172 15.1583ZM1.83692 13.9989C1.84153 13.996 1.84612 13.9932 1.85084 13.9906L2.47878 15.1289C2.49701 15.1189 2.51503 15.1082 2.53267 15.097L1.83692 13.9989ZM6.66636 11.3105C6.40028 11.3105 6.18632 11.308 5.97488 11.3471L6.21094 12.6255C6.27838 12.613 6.35375 12.6105 6.66636 12.6105V11.3105ZM5.62334 12.938C5.87876 12.7595 5.94131 12.7189 6.00322 12.6907L5.46543 11.5072C5.26955 11.5962 5.09578 11.7207 4.87858 11.8725L5.62334 12.938ZM5.97488 11.3471C5.79918 11.3795 5.62807 11.4333 5.46543 11.5072L6.00323 12.6907C6.06938 12.6607 6.13914 12.6387 6.21094 12.6255L5.97488 11.3471Z" fill="#6A6A6A"/>
</svg>
