<svg width="13" height="13" viewBox="0 0 13 13" fill="none" xmlns="http://www.w3.org/2000/svg">
<path d="M6.30975 11.7822C3.43931 11.7822 1.10616 9.44903 1.10616 6.57859C1.10616 3.70814 3.43931 1.375 6.30975 1.375C9.18019 1.375 11.5133 3.70814 11.5133 6.57859C11.5133 9.44903 9.18019 11.7822 6.30975 11.7822ZM6.30975 2.10108C3.84107 2.10108 1.83224 4.10991 1.83224 6.57859C1.83224 9.04727 3.84107 11.0561 6.30975 11.0561C8.77843 11.0561 10.7873 9.04727 10.7873 6.57859C10.7873 4.10991 8.77843 2.10108 6.30975 2.10108Z" fill="#667085"/>
<path d="M6.30976 7.42565C6.11129 7.42565 5.94672 7.26107 5.94672 7.06261V4.64234C5.94672 4.44388 6.11129 4.2793 6.30976 4.2793C6.50822 4.2793 6.6728 4.44388 6.6728 4.64234V7.06261C6.6728 7.26107 6.50822 7.42565 6.30976 7.42565Z" fill="#667085"/>
<path d="M6.30975 8.99889C6.24683 8.99889 6.1839 8.98437 6.12581 8.96017C6.06773 8.93597 6.01448 8.90208 5.96607 8.85852C5.92251 8.81011 5.88863 8.7617 5.86442 8.69878C5.84022 8.64069 5.8257 8.57776 5.8257 8.51484C5.8257 8.45191 5.84022 8.38898 5.86442 8.3309C5.88863 8.27281 5.92251 8.21956 5.96607 8.17116C6.01448 8.12759 6.06773 8.09371 6.12581 8.06951C6.24199 8.0211 6.37752 8.0211 6.49369 8.06951C6.55178 8.09371 6.60503 8.12759 6.65343 8.17116C6.697 8.21956 6.73088 8.27281 6.75508 8.3309C6.77929 8.38898 6.79381 8.45191 6.79381 8.51484C6.79381 8.57776 6.77929 8.64069 6.75508 8.69878C6.73088 8.7617 6.697 8.81011 6.65343 8.85852C6.60503 8.90208 6.55178 8.93597 6.49369 8.96017C6.43561 8.98437 6.37268 8.99889 6.30975 8.99889Z" fill="#667085"/>
</svg>
