<svg width="13" height="13" viewBox="0 0 13 13" fill="none" xmlns="http://www.w3.org/2000/svg">
<path d="M8.22554 11.6748H4.35311C2.58631 11.6748 1.56979 10.6582 1.56979 8.89144V4.05089C1.56979 2.28409 2.58631 1.26758 4.35311 1.26758H8.22554C9.99234 1.26758 11.0089 2.28409 11.0089 4.05089V8.89144C11.0089 10.6582 9.99234 11.6748 8.22554 11.6748ZM4.35311 1.99366C2.96871 1.99366 2.29588 2.6665 2.29588 4.05089V8.89144C2.29588 10.2758 2.96871 10.9487 4.35311 10.9487H8.22554C9.60994 10.9487 10.2828 10.2758 10.2828 8.89144V4.05089C10.2828 2.6665 9.60994 1.99366 8.22554 1.99366H4.35311Z" fill="#667085"/>
<path d="M9.4357 5.13984H8.46759C7.73183 5.13984 7.13644 4.54445 7.13644 3.80869V2.84058C7.13644 2.64212 7.30102 2.47754 7.49949 2.47754C7.69795 2.47754 7.86253 2.64212 7.86253 2.84058V3.80869C7.86253 4.14269 8.1336 4.41376 8.46759 4.41376H9.4357C9.63417 4.41376 9.79874 4.57834 9.79874 4.7768C9.79874 4.97526 9.63417 5.13984 9.4357 5.13984Z" fill="#667085"/>
<path d="M6.28934 7.31788H4.35312C4.15466 7.31788 3.99008 7.1533 3.99008 6.95484C3.99008 6.75638 4.15466 6.5918 4.35312 6.5918H6.28934C6.4878 6.5918 6.65238 6.75638 6.65238 6.95484C6.65238 7.1533 6.4878 7.31788 6.28934 7.31788Z" fill="#667085"/>
<path d="M8.22556 9.2544H4.35312C4.15466 9.2544 3.99008 9.08982 3.99008 8.89136C3.99008 8.6929 4.15466 8.52832 4.35312 8.52832H8.22556C8.42402 8.52832 8.5886 8.6929 8.5886 8.89136C8.5886 9.08982 8.42402 9.2544 8.22556 9.2544Z" fill="#667085"/>
</svg>
