<svg width="20" height="19" viewBox="0 0 20 19" fill="none" xmlns="http://www.w3.org/2000/svg">
<path fill-rule="evenodd" clip-rule="evenodd" d="M17.8172 9.71451C17.8172 10.45 17.0469 10.5269 16.9326 10.874C16.8166 11.2605 17.3943 11.4162 17.3943 12.1123C17.3943 12.8458 16.5086 12.8458 16.3926 13.1929C16.239 13.6188 16.6618 13.7726 16.6618 14.4687V14.585C16.5475 15.1647 15.6613 15.2042 15.5065 15.4349C15.3532 15.7051 15.5458 15.8608 15.5458 16.478C15.5458 16.827 15.1607 17.0578 14.6986 17.0578H9.19154C8.76716 17.0578 8.22878 16.827 7.72737 16.5569C7.26601 16.3242 6.80427 16.0915 6.30324 15.9771V9.83085C7.72737 8.7483 9.57665 7.08795 10.3076 5.07668C10.3076 5.03919 10.3076 4.99977 10.3469 4.99977L10.8852 2.10112C11.0778 2.02421 11.2326 2.02421 11.5411 2.02421C11.6555 2.02421 12.1187 2.72027 12.1187 4.92285C12.1187 5.77274 11.9639 6.73895 11.6555 7.8215H11.5022C11.1937 7.8215 10.9245 8.09166 10.9245 8.40123C10.9245 8.71081 11.1937 8.98096 11.5022 8.98096H16.7011C17.2788 8.98096 17.8172 9.25112 17.8172 9.71451ZM19.0118 9.71451C19.0118 8.47814 18.049 7.8215 16.7011 7.8215H12.8108C13.0815 6.77838 13.2352 5.77274 13.2352 4.92285C13.2352 1.56081 12.3113 0.864746 11.5022 0.864746C10.9634 0.864746 10.5783 0.904168 10.038 1.25123C9.88512 1.32814 9.80848 1.4839 9.7692 1.63772L9.19154 4.76903C8.5746 6.42938 6.99682 7.86092 5.72559 8.82714V17.0972C6.14997 17.0972 6.68835 17.3298 7.18938 17.6C7.80439 17.9096 8.46061 18.2172 9.19154 18.2172H14.6986C15.8539 18.2172 16.7011 17.2904 16.7011 16.478C16.7011 16.3242 16.7011 16.1704 16.6618 16.0541C17.3943 15.7839 17.8564 15.1647 17.8564 14.4687C17.8564 14.1216 17.7794 13.812 17.6639 13.5794C18.0879 13.2717 18.5496 12.7689 18.5496 12.1498C18.5496 11.8402 18.3948 11.4537 18.1645 11.1835C18.6655 10.7971 19.0118 10.2568 19.0118 9.71451Z" fill="#131A42"/>
<path fill-rule="evenodd" clip-rule="evenodd" d="M1.68169 17.0975H5.14764V8.98124H1.68169V17.0975ZM5.14764 18.2569H1.68169C1.02739 18.2569 0.526367 17.7541 0.526367 17.0975V8.98124C0.526367 8.3246 1.02739 7.82178 1.68169 7.82178H5.14764C5.80194 7.82178 6.30296 8.3246 6.30296 8.98124V17.0975C6.30296 17.7541 5.80194 18.2569 5.14764 18.2569Z" fill="#131A42"/>
</svg>
