<svg width="14" height="14" viewBox="0 0 14 14" fill="none" xmlns="http://www.w3.org/2000/svg">
<path fill-rule="evenodd" clip-rule="evenodd" d="M7 2.33317C6.35659 2.33317 5.83334 2.85642 5.83334 3.49984V6.4165C5.83334 7.05992 6.35659 7.58317 7 7.58317C7.64342 7.58317 8.16667 7.05992 8.16667 6.4165V3.49984C8.16667 2.85642 7.64342 2.33317 7 2.33317ZM9.33334 6.4165C9.33334 7.70334 8.28684 8.74984 7.00001 8.74984C5.71317 8.74984 4.66667 7.70334 4.66667 6.4165V3.49984C4.66667 2.213 5.71317 1.1665 7.00001 1.1665C8.28684 1.1665 9.33334 2.213 9.33334 3.49984V6.4165ZM10.5 5.83317C10.8226 5.83317 11.0833 6.0945 11.0833 6.4165C11.0833 8.46984 9.55909 10.1685 7.58334 10.4532V11.6665H8.81126C9.09884 11.6665 9.33334 11.901 9.33334 12.1886V12.3111C9.33334 12.5987 9.09884 12.8332 8.81126 12.8332H5.18876C4.90117 12.8332 4.66667 12.5987 4.66667 12.3111V12.1886C4.66667 11.901 4.90117 11.6665 5.18876 11.6665H6.41667V10.4532C4.44092 10.1685 2.91667 8.46984 2.91667 6.4165C2.91667 6.0945 3.17742 5.83317 3.50001 5.83317C3.82259 5.83317 4.08334 6.0945 4.08334 6.4165C4.08334 8.02475 5.39176 9.33317 7.00001 9.33317C8.60826 9.33317 9.91667 8.02475 9.91667 6.4165C9.91667 6.0945 10.1774 5.83317 10.5 5.83317Z" fill="#231F20"/>
<mask id="mask0_1179_15255" style="mask-type:luminance" maskUnits="userSpaceOnUse" x="2" y="1" width="10" height="12">
<path fill-rule="evenodd" clip-rule="evenodd" d="M7 2.33317C6.35659 2.33317 5.83334 2.85642 5.83334 3.49984V6.4165C5.83334 7.05992 6.35659 7.58317 7 7.58317C7.64342 7.58317 8.16667 7.05992 8.16667 6.4165V3.49984C8.16667 2.85642 7.64342 2.33317 7 2.33317ZM9.33334 6.4165C9.33334 7.70334 8.28684 8.74984 7.00001 8.74984C5.71317 8.74984 4.66667 7.70334 4.66667 6.4165V3.49984C4.66667 2.213 5.71317 1.1665 7.00001 1.1665C8.28684 1.1665 9.33334 2.213 9.33334 3.49984V6.4165ZM10.5 5.83317C10.8226 5.83317 11.0833 6.0945 11.0833 6.4165C11.0833 8.46984 9.55909 10.1685 7.58334 10.4532V11.6665H8.81126C9.09884 11.6665 9.33334 11.901 9.33334 12.1886V12.3111C9.33334 12.5987 9.09884 12.8332 8.81126 12.8332H5.18876C4.90117 12.8332 4.66667 12.5987 4.66667 12.3111V12.1886C4.66667 11.901 4.90117 11.6665 5.18876 11.6665H6.41667V10.4532C4.44092 10.1685 2.91667 8.46984 2.91667 6.4165C2.91667 6.0945 3.17742 5.83317 3.50001 5.83317C3.82259 5.83317 4.08334 6.0945 4.08334 6.4165C4.08334 8.02475 5.39176 9.33317 7.00001 9.33317C8.60826 9.33317 9.91667 8.02475 9.91667 6.4165C9.91667 6.0945 10.1774 5.83317 10.5 5.83317Z" fill="white"/>
</mask>
<g mask="url(#mask0_1179_15255)">
<rect width="14" height="14" fill="#707C97"/>
</g>
</svg>
