<svg width="23" height="22" viewBox="0 0 23 22" fill="none" xmlns="http://www.w3.org/2000/svg">
<path fill-rule="evenodd" clip-rule="evenodd" d="M16.4713 18.265H6.48093C6.20019 18.265 5.97173 18.0709 5.97173 17.8317V4.83171C5.97173 4.59251 6.20019 4.39837 6.48093 4.39837H10.5591V7.99504C10.5591 9.35744 11.6757 10.465 13.0492 10.465H16.9815V17.8317C16.9815 18.0709 16.7521 18.265 16.4713 18.265ZM16.6594 8.73171H13.0492C12.6877 8.73171 12.3941 8.40151 12.3941 7.99504V4.39837H12.4968L16.6594 8.73171ZM18.5779 8.14931L13.5831 2.94931C13.4097 2.76817 13.1629 2.66504 12.9033 2.66504H6.48093C5.18821 2.66504 4.13678 3.63744 4.13678 4.83171V17.8317C4.13678 19.026 5.18821 19.9984 6.48093 19.9984H16.4713C17.7641 19.9984 18.8164 19.026 18.8164 17.8317V8.73171C18.8164 8.51591 18.7311 8.30877 18.5779 8.14931Z" fill="#231F20"/>
<mask id="mask0_1179_15579" style="mask-type:luminance" maskUnits="userSpaceOnUse" x="4" y="2" width="15" height="18">
<path fill-rule="evenodd" clip-rule="evenodd" d="M16.4713 18.265H6.48093C6.20019 18.265 5.97173 18.0709 5.97173 17.8317V4.83171C5.97173 4.59251 6.20019 4.39837 6.48093 4.39837H10.5591V7.99504C10.5591 9.35744 11.6757 10.465 13.0492 10.465H16.9815V17.8317C16.9815 18.0709 16.7521 18.265 16.4713 18.265ZM16.6594 8.73171H13.0492C12.6877 8.73171 12.3941 8.40151 12.3941 7.99504V4.39837H12.4968L16.6594 8.73171ZM18.5779 8.14931L13.5831 2.94931C13.4097 2.76817 13.1629 2.66504 12.9033 2.66504H6.48093C5.18821 2.66504 4.13678 3.63744 4.13678 4.83171V17.8317C4.13678 19.026 5.18821 19.9984 6.48093 19.9984H16.4713C17.7641 19.9984 18.8164 19.026 18.8164 17.8317V8.73171C18.8164 8.51591 18.7311 8.30877 18.5779 8.14931Z" fill="white"/>
</mask>
<g mask="url(#mask0_1179_15579)">
<rect x="0.466614" y="0.931641" width="22.0194" height="20.8" fill="white"/>
</g>
</svg>
