<svg width="26" height="22" viewBox="0 0 26 22" fill="none" xmlns="http://www.w3.org/2000/svg">
<path fill-rule="evenodd" clip-rule="evenodd" d="M3.82825 10.6674C3.82825 9.71062 4.77424 8.93408 5.93984 8.93408C7.10543 8.93408 8.05142 9.71062 8.05142 10.6674C8.05142 11.6242 7.10543 12.4007 5.93984 12.4007C4.77424 12.4007 3.82825 11.6242 3.82825 10.6674ZM13.3304 8.93408C12.1648 8.93408 11.2188 9.71062 11.2188 10.6674C11.2188 11.6242 12.1648 12.4007 13.3304 12.4007C14.496 12.4007 15.442 11.6242 15.442 10.6674C15.442 9.71062 14.496 8.93408 13.3304 8.93408ZM20.721 8.93408C19.5554 8.93408 18.6094 9.71062 18.6094 10.6674C18.6094 11.6242 19.5554 12.4007 20.721 12.4007C21.8866 12.4007 22.8325 11.6242 22.8325 10.6674C22.8325 9.71062 21.8866 8.93408 20.721 8.93408Z" fill="#231F20"/>
<mask id="mask0_1179_15561" style="mask-type:luminance" maskUnits="userSpaceOnUse" x="3" y="8" width="20" height="5">
<path fill-rule="evenodd" clip-rule="evenodd" d="M3.82825 10.6674C3.82825 9.71062 4.77424 8.93408 5.93984 8.93408C7.10543 8.93408 8.05142 9.71062 8.05142 10.6674C8.05142 11.6242 7.10543 12.4007 5.93984 12.4007C4.77424 12.4007 3.82825 11.6242 3.82825 10.6674ZM13.3304 8.93408C12.1648 8.93408 11.2188 9.71062 11.2188 10.6674C11.2188 11.6242 12.1648 12.4007 13.3304 12.4007C14.496 12.4007 15.442 11.6242 15.442 10.6674C15.442 9.71062 14.496 8.93408 13.3304 8.93408ZM20.721 8.93408C19.5554 8.93408 18.6094 9.71062 18.6094 10.6674C18.6094 11.6242 19.5554 12.4007 20.721 12.4007C21.8866 12.4007 22.8325 11.6242 22.8325 10.6674C22.8325 9.71062 21.8866 8.93408 20.721 8.93408Z" fill="white"/>
</mask>
<g mask="url(#mask0_1179_15561)">
<rect x="0.660889" y="0.267578" width="25.3391" height="20.8" fill="#B7BDCB"/>
</g>
</svg>
