<svg width="19" height="20" viewBox="0 0 19 20" fill="none" xmlns="http://www.w3.org/2000/svg">
<path fill-rule="evenodd" clip-rule="evenodd" d="M9.27064 6.28884C10.1199 6.28884 10.8091 5.59961 10.8091 4.75038C10.8091 3.90114 10.1199 3.21191 9.27064 3.21191C8.42141 3.21191 7.73218 3.90114 7.73218 4.75038C7.73218 5.59961 8.42141 6.28884 9.27064 6.28884ZM9.27064 8.59653C8.42141 8.59653 7.73218 9.28576 7.73218 10.135C7.73218 10.9842 8.42141 11.6735 9.27064 11.6735C10.1199 11.6735 10.8091 10.9842 10.8091 10.135C10.8091 9.28576 10.1199 8.59653 9.27064 8.59653ZM7.73218 15.5196C7.73218 14.6704 8.42141 13.9811 9.27064 13.9811C10.1199 13.9811 10.8091 14.6704 10.8091 15.5196C10.8091 16.3688 10.1199 17.0581 9.27064 17.0581C8.42141 17.0581 7.73218 16.3688 7.73218 15.5196Z" fill="#231F20"/>
<mask id="mask0_1179_15529" style="mask-type:luminance" maskUnits="userSpaceOnUse" x="7" y="3" width="4" height="15">
<path fill-rule="evenodd" clip-rule="evenodd" d="M9.27064 6.28884C10.1199 6.28884 10.8091 5.59961 10.8091 4.75038C10.8091 3.90114 10.1199 3.21191 9.27064 3.21191C8.42141 3.21191 7.73218 3.90114 7.73218 4.75038C7.73218 5.59961 8.42141 6.28884 9.27064 6.28884ZM9.27064 8.59653C8.42141 8.59653 7.73218 9.28576 7.73218 10.135C7.73218 10.9842 8.42141 11.6735 9.27064 11.6735C10.1199 11.6735 10.8091 10.9842 10.8091 10.135C10.8091 9.28576 10.1199 8.59653 9.27064 8.59653ZM7.73218 15.5196C7.73218 14.6704 8.42141 13.9811 9.27064 13.9811C10.1199 13.9811 10.8091 14.6704 10.8091 15.5196C10.8091 16.3688 10.1199 17.0581 9.27064 17.0581C8.42141 17.0581 7.73218 16.3688 7.73218 15.5196Z" fill="white"/>
</mask>
<g mask="url(#mask0_1179_15529)">
<rect x="0.039856" y="0.904297" width="18.4615" height="18.4615" fill="#707C97"/>
</g>
</svg>
