<svg width="27" height="37" viewBox="0 0 27 37" fill="none" xmlns="http://www.w3.org/2000/svg">
<path fill-rule="evenodd" clip-rule="evenodd" d="M4.69995 0H16.7701L27 10.6629V31.4023C27 34.0004 24.8981 36.1023 22.309 36.1023H4.69995C2.1019 36.1023 7.42436e-10 34.0004 7.42436e-10 31.4023V4.69995C-4.56144e-05 2.1019 2.10185 0 4.69995 0Z" fill="#E5252A"/>
<path opacity="0.302" fill-rule="evenodd" clip-rule="evenodd" d="M16.7588 0V10.5817H26.9977L16.7588 0Z" fill="white"/>
<path d="M5.22168 26.9372V20.3428H8.02724C8.72186 20.3428 9.27217 20.5322 9.68713 20.9201C10.1021 21.299 10.3096 21.8132 10.3096 22.4537C10.3096 23.0942 10.1021 23.6084 9.68713 23.9873C9.27217 24.3752 8.72186 24.5646 8.02724 24.5646H6.90862V26.9372H5.22168ZM6.90862 23.1303H7.8378C8.09037 23.1303 8.28884 23.0762 8.42418 22.9499C8.55947 22.8326 8.63168 22.6702 8.63168 22.4537C8.63168 22.2373 8.55952 22.0749 8.42418 21.9576C8.28889 21.8313 8.09042 21.7772 7.8378 21.7772H6.90862V23.1303ZM11.0042 26.9372V20.3428H13.3406C13.8007 20.3428 14.2337 20.4059 14.6397 20.5412C15.0456 20.6765 15.4155 20.866 15.7402 21.1276C16.065 21.3802 16.3266 21.723 16.516 22.156C16.6964 22.589 16.7957 23.0852 16.7957 23.6445C16.7957 24.1948 16.6965 24.6909 16.516 25.1239C16.3266 25.5569 16.065 25.8997 15.7402 26.1523C15.4154 26.4139 15.0456 26.6034 14.6397 26.7387C14.2337 26.874 13.8007 26.9372 13.3406 26.9372H11.0042ZM12.655 25.5028H13.1422C13.4038 25.5028 13.6473 25.4758 13.8729 25.4126C14.0893 25.3495 14.2969 25.2502 14.4953 25.1149C14.6848 24.9796 14.8381 24.7902 14.9464 24.5376C15.0546 24.285 15.1088 23.9873 15.1088 23.6445C15.1088 23.2927 15.0546 22.995 14.9464 22.7424C14.8381 22.4898 14.6848 22.3004 14.4953 22.1651C14.2969 22.0298 14.0894 21.9305 13.8729 21.8674C13.6473 21.8042 13.4038 21.7771 13.1422 21.7771H12.655V25.5028ZM17.6437 26.9372V20.3428H22.3346V21.7771H19.3306V22.8326H21.7302V24.2579H19.3306V26.9372H17.6437Z" fill="white"/>
</svg>
