<svg width="23" height="22" viewBox="0 0 23 22" fill="none" xmlns="http://www.w3.org/2000/svg">
<path d="M12 0.000244141C11.723 0.000244141 11.5 0.223244 11.5 0.500244V1.00024C11.5 1.27724 11.723 1.50024 12 1.50024H17.002L17.0099 4.74243C17.0099 5.15508 17.3454 5.48933 17.758 5.49048L21.0002 5.49902V19.75C21.0002 20.1784 20.6786 20.5 20.2502 20.5H8.7502C8.3217 20.5 8.0002 20.1784 8.0002 19.75V19C8.0002 18.723 7.7772 18.5 7.5002 18.5H7.0002C6.7232 18.5 6.5002 18.723 6.5002 19V19.75C6.5002 20.9835 7.51665 22 8.7502 22H20.2502C21.4837 22 22.5002 20.9835 22.5002 19.75V4.50684C22.5001 4.30794 22.4211 4.11721 22.2804 3.97656L18.5236 0.219727C18.383 0.0790266 18.1922 5e-05 17.9933 0L12 0.000244141ZM6.5 10.5002C6.5 10.7772 6.723 11.0002 7 11.0002H7.5C7.777 11.0002 8 10.7772 8 10.5002V5.50024C8 5.22324 7.777 5.00024 7.5 5.00024H7C6.723 5.00024 6.5 5.22324 6.5 5.50024V10.5002Z" fill="#242730"/>
<path d="M8.75 0C7.5165 0 6.5 1.01645 6.5 2.25V3.5C6.5 3.777 6.723 4 7 4H7.5C7.777 4 8 3.777 8 3.5V2.25C8 1.82155 8.32155 1.5 8.75 1.5H10C10.277 1.5 10.5 1.277 10.5 1V0.5C10.5 0.223 10.277 0 10 0H8.75ZM1 12C0.445995 12 0 12.446 0 13V16.5C0 17.054 0.445995 17.5 1 17.5H13.5C14.054 17.5 14.5 17.054 14.5 16.5V13C14.5 12.446 14.054 12 13.5 12H1ZM3.48242 13.3701H4.44727C5.21594 13.3701 5.60254 13.671 5.60254 14.2344C5.60254 14.8312 5.21594 15.1465 4.44727 15.1465H4.05078V15.623H4.28516C4.47613 15.623 4.57129 15.685 4.57129 15.876C4.57129 16.067 4.47613 16.1338 4.28516 16.1338H3.48242C3.29145 16.1338 3.19629 16.067 3.19629 15.876C3.19629 15.7137 3.28678 15.623 3.44434 15.623H3.48244V13.8857H3.44923C3.2869 13.8857 3.1963 13.795 3.1963 13.6279C3.1963 13.4417 3.29145 13.3701 3.48242 13.3701ZM6.25488 13.3701H6.69336H6.83203C7.27605 13.3701 7.6442 13.3801 7.93066 13.5518C8.29829 13.7762 8.5127 14.1962 8.5127 14.75C8.5127 15.3277 8.26889 15.7716 7.85352 15.9912C7.61002 16.1249 7.30935 16.1338 6.95605 16.1338H6.69336H6.25488C6.05913 16.1338 5.95898 16.0717 5.95898 15.876C5.95898 15.7089 6.04969 15.623 6.2168 15.623H6.2549V13.8857H6.2168C6.04969 13.8857 5.95898 13.795 5.95898 13.6279C5.95898 13.4369 6.05436 13.3701 6.25488 13.3701ZM9.15039 13.3701H11.0605C11.2563 13.3701 11.3037 13.4176 11.3037 13.585V14.1055C11.3037 14.306 11.237 14.4014 11.0508 14.4014C10.8598 14.4014 10.8027 14.3012 10.8027 14.1055V13.8613H9.71875V14.458H10.124V14.4297C10.124 14.2531 10.2057 14.167 10.3633 14.167C10.5399 14.167 10.6016 14.2632 10.6016 14.459V14.9404C10.6016 15.1362 10.5399 15.2324 10.3633 15.2324C10.2057 15.2324 10.124 15.1505 10.124 14.9834V14.9405H9.71875V15.6231H9.84766C10.0386 15.6231 10.1338 15.6851 10.1338 15.876C10.1338 16.067 10.0386 16.1338 9.84766 16.1338H9.15039C8.95942 16.1338 8.86426 16.067 8.86426 15.876C8.86426 15.7137 8.95475 15.6231 9.1123 15.6231H9.15041V13.8858H9.1172C8.95487 13.8858 8.86427 13.7951 8.86427 13.628C8.86427 13.4418 8.95942 13.3701 9.15039 13.3701ZM6.99414 13.8711C6.95119 13.8711 6.9042 13.8709 6.85645 13.8761V15.6183C6.9042 15.6233 6.94728 15.6233 6.99023 15.6233C7.5727 15.6233 7.84473 15.3469 7.84473 14.7454C7.84473 14.1581 7.56707 13.8711 6.99414 13.8711ZM4.05078 13.9043V14.6211H4.37988C4.74751 14.6211 4.93457 14.4918 4.93457 14.2578C4.93457 14.0239 4.74751 13.9043 4.37988 13.9043H4.05078Z" fill="#11C111"/>
</svg>
