<svg width="16" height="16" viewBox="0 0 16 16" fill="none" xmlns="http://www.w3.org/2000/svg">
<path fill-rule="evenodd" clip-rule="evenodd" d="M4.66667 6.33333C5.35667 6.33333 5.91667 5.77333 5.91667 5.08333C5.91667 4.39333 5.35667 3.83333 4.66667 3.83333C3.97667 3.83333 3.41667 4.39333 3.41667 5.08333C3.41667 5.77333 3.97667 6.33333 4.66667 6.33333ZM13 13.8333H3.4675L9.305 8.96249C9.51 8.78833 9.88167 8.78916 10.0825 8.96166L13.8333 12.1617V13C13.8333 13.46 13.46 13.8333 13 13.8333ZM3 2.16667H13C13.46 2.16667 13.8333 2.54 13.8333 3V9.97L11.1642 7.69333C10.3392 6.99167 9.04833 6.99167 8.23083 7.68833L2.16667 12.7483V3C2.16667 2.54 2.54 2.16667 3 2.16667ZM13 0.5H3C1.62167 0.5 0.5 1.62167 0.5 3V13C0.5 14.3783 1.62167 15.5 3 15.5H13C14.3783 15.5 15.5 14.3783 15.5 13V3C15.5 1.62167 14.3783 0.5 13 0.5Z" fill="#FF3366"/>
<mask id="mask0_4823_41" style="mask-type:luminance" maskUnits="userSpaceOnUse" x="0" y="0" width="16" height="16">
<path fill-rule="evenodd" clip-rule="evenodd" d="M4.66667 6.33333C5.35667 6.33333 5.91667 5.77333 5.91667 5.08333C5.91667 4.39333 5.35667 3.83333 4.66667 3.83333C3.97667 3.83333 3.41667 4.39333 3.41667 5.08333C3.41667 5.77333 3.97667 6.33333 4.66667 6.33333ZM13 13.8333H3.4675L9.305 8.96249C9.51 8.78833 9.88167 8.78916 10.0825 8.96166L13.8333 12.1617V13C13.8333 13.46 13.46 13.8333 13 13.8333ZM3 2.16667H13C13.46 2.16667 13.8333 2.54 13.8333 3V9.97L11.1642 7.69333C10.3392 6.99167 9.04833 6.99167 8.23083 7.68833L2.16667 12.7483V3C2.16667 2.54 2.54 2.16667 3 2.16667ZM13 0.5H3C1.62167 0.5 0.5 1.62167 0.5 3V13C0.5 14.3783 1.62167 15.5 3 15.5H13C14.3783 15.5 15.5 14.3783 15.5 13V3C15.5 1.62167 14.3783 0.5 13 0.5Z" fill="white"/>
</mask>
<g mask="url(#mask0_4823_41)">
<rect x="-2" y="-2" width="20" height="20" fill="#FF3366"/>
</g>
</svg>
