<svg width="100" height="69" viewBox="0 0 100 69" fill="none" xmlns="http://www.w3.org/2000/svg">
<path d="M12.1058 3.78125L0.038142 66.169C-0.207567 67.4377 0.765061 68.6158 2.05759 68.6158H8.42153L12.1058 3.78125Z" fill="#F8CD5B"/>
<path d="M12.2499 3.52882L4.25104 64.784C3.9856 66.815 5.56739 68.6159 7.61542 68.6159H19.3496L12.7338 3.30762L12.2499 3.52882Z" fill="#78ACEA"/>
<path d="M12.249 3.5293L8.66819 64.3944C8.53342 66.6855 10.3548 68.6171 12.6499 68.6171H30.1504L12.249 3.5293Z" fill="#699DEE"/>
<path d="M12.1168 4.02539L13.8579 64.3937C13.7231 66.6847 15.5445 68.6163 17.8396 68.6163H35.3401L12.1168 4.02539Z" fill="#5288D8"/>
<path d="M95.9025 68.6166H26.9004C25.1777 68.6166 23.7007 67.3854 23.391 65.6906L12.8909 8.27149C12.4144 5.66466 14.4162 3.2627 17.0666 3.2627H85.2567C86.9794 3.2627 88.4564 4.49396 88.766 6.18875L99.4119 64.4076C99.8128 66.5985 98.1296 68.6173 95.9025 68.6173V68.6166Z" fill="#D7E9FF"/>
<path d="M14.2555 15.7285H90.5574L88.6013 4.88737C88.4318 3.94673 87.613 3.2627 86.6574 3.2627H12.7492C12.3456 3.2627 12.04 3.62888 12.1128 4.02569L14.2548 15.7279L14.2555 15.7285Z" fill="#F8CD5B"/>
<path d="M16.0495 0C14.2254 0 12.7416 1.4831 12.7416 3.30721H13.3773C13.3773 1.83363 14.5759 0.634352 16.0502 0.634352C17.5244 0.634352 18.7237 1.83295 18.7237 3.30721C18.7237 3.60328 18.6754 3.88779 18.5862 4.15324C18.3235 4.93869 17.7062 5.56283 16.9241 5.83304C16.6954 5.912 16.4538 5.96237 16.2026 5.97598V6.61169C16.496 6.59876 16.7791 6.54703 17.048 6.46195C18.1207 6.12231 18.9592 5.24838 19.2492 4.15392C19.3206 3.88371 19.3588 3.59988 19.3588 3.30789C19.3588 1.48379 17.875 0.000680635 16.0509 0.000680635L16.0495 0Z" fill="#78ACEA"/>
<path d="M17.0737 6.27101C17.0737 6.33703 17.0642 6.40169 17.0478 6.46227C16.9641 6.76515 16.6864 6.98772 16.357 6.98772C15.9615 6.98772 15.641 6.66714 15.641 6.27169C15.641 5.87624 15.9615 5.55566 16.357 5.55566C16.5877 5.55566 16.7926 5.66525 16.924 5.83472C17.0179 5.95588 17.073 6.10766 17.073 6.27237L17.0737 6.27101Z" fill="#78ACEA"/>
<path d="M27.9079 0C26.0838 0 24.6001 1.4831 24.6001 3.30721H25.2351C25.2351 1.83363 26.4344 0.634352 27.9086 0.634352C29.3829 0.634352 30.5815 1.83295 30.5815 3.30721C30.5815 3.60328 30.5332 3.88779 30.444 4.15324C30.1813 4.93869 29.5639 5.56283 28.7832 5.83304C28.5546 5.912 28.3122 5.96237 28.0604 5.97598V6.61169C28.3538 6.59876 28.6369 6.54703 28.9058 6.46195C29.9791 6.12231 30.8177 5.24838 31.1076 4.15392C31.1791 3.88371 31.2172 3.59988 31.2172 3.30789C31.2172 1.48379 29.7334 0.000680635 27.9093 0.000680635L27.9079 0Z" fill="#78ACEA"/>
<path d="M28.9321 6.27101C28.9321 6.33703 28.9226 6.40169 28.9063 6.46227C28.8226 6.76515 28.5455 6.98772 28.2154 6.98772C27.82 6.98772 27.4994 6.66714 27.4994 6.27169C27.4994 5.87624 27.82 5.55566 28.2154 5.55566C28.4468 5.55566 28.6517 5.66525 28.7831 5.83472C28.8763 5.95588 28.9315 6.10766 28.9315 6.27237L28.9321 6.27101Z" fill="#78ACEA"/>
<path d="M39.7733 0C37.9492 0 36.4654 1.4831 36.4654 3.30721H37.1005C37.1005 1.83363 38.2991 0.634352 39.774 0.634352C41.2489 0.634352 42.4468 1.83295 42.4468 3.30721C42.4468 3.60328 42.3985 3.88779 42.3094 4.15324C42.0466 4.93869 41.4293 5.56283 40.6486 5.83304C40.4199 5.912 40.1776 5.96237 39.9258 5.97598V6.61169C40.2184 6.59876 40.5023 6.54703 40.7711 6.46195C41.8452 6.12163 42.6823 5.24838 42.9723 4.15392C43.0438 3.88371 43.0819 3.59988 43.0819 3.30789C43.0819 1.48379 41.5981 0.000680635 39.7747 0.000680635L39.7733 0Z" fill="#78ACEA"/>
<path d="M40.7975 6.27101C40.7975 6.33703 40.788 6.40169 40.7716 6.46227C40.6879 6.76515 40.4102 6.98772 40.0808 6.98772C39.6853 6.98772 39.3648 6.66714 39.3648 6.27169C39.3648 5.87624 39.6853 5.55566 40.0808 5.55566C40.3115 5.55566 40.5164 5.66525 40.6484 5.83472C40.7417 5.95588 40.7968 6.10766 40.7968 6.27237L40.7975 6.27101Z" fill="#78ACEA"/>
<path d="M51.6241 0C49.8 0 48.3169 1.4831 48.3169 3.30721H48.952C48.952 1.83363 50.1506 0.634352 51.6248 0.634352C53.0991 0.634352 54.2984 1.83295 54.2984 3.30721C54.2984 3.60328 54.25 3.88779 54.1609 4.15324C53.8981 4.93869 53.2808 5.56283 52.4988 5.83304C52.2701 5.912 52.0284 5.96237 51.7773 5.97598V6.61169C52.07 6.59876 52.3538 6.54703 52.6226 6.46195C53.6967 6.12163 54.5339 5.24838 54.8238 4.15392C54.8953 3.88371 54.9334 3.59988 54.9334 3.30789C54.9334 1.48379 53.4496 0.000680635 51.6255 0.000680635L51.6241 0Z" fill="#78ACEA"/>
<path d="M52.649 6.27101C52.649 6.33703 52.6395 6.40169 52.6232 6.46227C52.5394 6.76515 52.2617 6.98772 51.9323 6.98772C51.5369 6.98772 51.2163 6.66714 51.2163 6.27169C51.2163 5.87624 51.5369 5.55566 51.9323 5.55566C52.163 5.55566 52.3679 5.66525 52.4993 5.83472C52.5932 5.95588 52.6483 6.10766 52.6483 6.27237L52.649 6.27101Z" fill="#78ACEA"/>
<path d="M63.4833 0C61.6592 0 60.1754 1.4831 60.1754 3.30721H60.8104C60.8104 1.83363 62.0097 0.634352 63.4839 0.634352C64.9582 0.634352 66.1568 1.83295 66.1568 3.30721C66.1568 3.60328 66.1085 3.88779 66.0193 4.15324C65.7566 4.93869 65.1393 5.56283 64.3572 5.83304C64.1299 5.912 63.8869 5.96237 63.6357 5.97598V6.61169C63.9298 6.59876 64.2122 6.54703 64.4811 6.46195C65.5551 6.12231 66.393 5.24838 66.6829 4.15392C66.7544 3.88371 66.7925 3.59988 66.7925 3.30789C66.7925 1.48379 65.3087 0.000680635 63.4846 0.000680635L63.4833 0Z" fill="#78ACEA"/>
<path d="M64.5075 6.27101C64.5075 6.33703 64.4979 6.40169 64.4816 6.46227C64.3979 6.76515 64.1209 6.98772 63.7907 6.98772C63.3953 6.98772 63.0747 6.66714 63.0747 6.27169C63.0747 5.87624 63.3953 5.55566 63.7907 5.55566C64.0222 5.55566 64.2277 5.66525 64.3577 5.83472C64.4516 5.95588 64.5068 6.10766 64.5068 6.27237L64.5075 6.27101Z" fill="#78ACEA"/>
<path d="M75.3486 0C73.5245 0 72.0408 1.4831 72.0408 3.30721H72.6758C72.6758 1.83363 73.8744 0.634352 75.3493 0.634352C76.8243 0.634352 78.0222 1.83295 78.0222 3.30721C78.0222 3.60328 77.9738 3.88779 77.8847 4.15324C77.622 4.93869 77.0046 5.56283 76.2226 5.83304C75.9952 5.912 75.7523 5.96237 75.5011 5.97598V6.61169C75.7945 6.59876 76.0776 6.54703 76.3465 6.46195C77.4191 6.12231 78.2577 5.24838 78.5476 4.15392C78.6191 3.88371 78.6572 3.59988 78.6572 3.30789C78.6572 1.48379 77.1734 0.000680635 75.35 0.000680635L75.3486 0Z" fill="#78ACEA"/>
<path d="M76.3728 6.27101C76.3728 6.33703 76.3633 6.40169 76.347 6.46227C76.2632 6.76515 75.9855 6.98772 75.6561 6.98772C75.2607 6.98772 74.9401 6.66714 74.9401 6.27169C74.9401 5.87624 75.2607 5.55566 75.6561 5.55566C75.8869 5.55566 76.0917 5.66525 76.2231 5.83472C76.317 5.95588 76.3721 6.10766 76.3721 6.27237L76.3728 6.27101Z" fill="#78ACEA"/>
<path d="M87.2103 0C85.3862 0 83.9031 1.4831 83.9031 3.30721H84.5381C84.5381 1.83363 85.7367 0.634352 87.211 0.634352C88.6852 0.634352 89.8845 1.83295 89.8845 3.30721C89.8845 3.60328 89.8362 3.88779 89.747 4.15324C89.4843 4.93869 88.867 5.56283 88.0849 5.83304C87.8562 5.912 87.6146 5.96237 87.3635 5.97598V6.61169C87.6568 6.59876 87.94 6.54703 88.2088 6.46195C89.2815 6.12231 90.12 5.24838 90.41 4.15392C90.4814 3.88371 90.5196 3.59988 90.5196 3.30789C90.5196 1.48379 89.0358 0.000680635 87.2117 0.000680635L87.2103 0Z" fill="#78ACEA"/>
<path d="M88.2352 6.27101C88.2352 6.33703 88.2257 6.40169 88.2093 6.46227C88.1256 6.76515 87.8479 6.98772 87.5185 6.98772C87.123 6.98772 86.8024 6.66714 86.8024 6.27169C86.8024 5.87624 87.123 5.55566 87.5185 5.55566C87.7492 5.55566 87.9541 5.66525 88.0854 5.83472C88.1794 5.95588 88.2345 6.10766 88.2345 6.27237L88.2352 6.27101Z" fill="#78ACEA"/>
<path d="M58.3815 36.0937H54.5243C54.0785 36.0937 53.6429 35.7288 53.5571 35.283L52.8132 31.4259C52.7274 30.9801 53.0215 30.6152 53.4673 30.6152H57.3245C57.7703 30.6152 58.2059 30.9801 58.2916 31.4259L59.0356 35.283C59.1213 35.7288 58.8273 36.0937 58.3815 36.0937Z" fill="#AFCDFB"/>
<path d="M68.1147 36.0937H64.2576C63.8117 36.0937 63.3761 35.7288 63.2904 35.283L62.5464 31.4259C62.4607 30.9801 62.7547 30.6152 63.2005 30.6152H67.0577C67.5035 30.6152 67.9391 30.9801 68.0249 31.4259L68.7688 35.283C68.8546 35.7288 68.5605 36.0937 68.1147 36.0937Z" fill="#AFCDFB"/>
<path d="M77.8479 36.0937H73.9908C73.545 36.0937 73.1094 35.7288 73.0236 35.283L72.2797 31.4259C72.1939 30.9801 72.4879 30.6152 72.9337 30.6152H76.7909C77.2367 30.6152 77.6723 30.9801 77.7581 31.4259L78.502 35.283C78.5878 35.7288 78.2938 36.0937 77.8479 36.0937Z" fill="#78ACEA"/>
<path d="M29.1818 36.0937H25.3247C24.8789 36.0937 24.4432 35.7288 24.3575 35.283L23.6135 31.4259C23.5278 30.9801 23.8218 30.6152 24.2676 30.6152H28.1248C28.5706 30.6152 29.0062 30.9801 29.092 31.4259L29.8359 35.283C29.9217 35.7288 29.6276 36.0937 29.1818 36.0937Z" fill="#AFCDFB"/>
<path d="M24.9556 24.5145H23.2982C23.1063 24.5145 22.9198 24.3579 22.8823 24.166L22.5624 22.5086C22.5257 22.3167 22.6523 22.1602 22.8436 22.1602H24.5009C24.6928 22.1602 24.8793 22.3167 24.9168 22.5086L25.2367 24.166C25.2734 24.3579 25.1468 24.5145 24.9556 24.5145Z" fill="#F99746"/>
<path d="M38.9151 36.0937H35.0579C34.6121 36.0937 34.1771 35.7288 34.0907 35.283L33.3468 31.4259C33.261 30.9801 33.555 30.6152 34.0009 30.6152H37.858C38.3038 30.6152 38.7394 30.9801 38.8252 31.4259L39.5691 35.283C39.6549 35.7288 39.3609 36.0937 38.9151 36.0937Z" fill="#AFCDFB"/>
<path d="M48.6483 36.0937H44.7911C44.3453 36.0937 43.9097 35.7288 43.8239 35.283L43.08 31.4259C42.9942 30.9801 43.2883 30.6152 43.7341 30.6152H47.5912C48.0371 30.6152 48.4727 30.9801 48.5584 31.4259L49.3024 35.283C49.3881 35.7288 49.0941 36.0937 48.6483 36.0937Z" fill="#AFCDFB"/>
<path d="M87.5848 36.0937H83.7277C83.2819 36.0937 82.8469 35.7288 82.7605 35.283L82.0166 31.4259C81.9308 30.9801 82.2248 30.6152 82.6706 30.6152H86.5278C86.9736 30.6152 87.4092 30.9801 87.495 31.4259L88.2389 35.283C88.3247 35.7288 88.0307 36.0937 87.5848 36.0937Z" fill="#78ACEA"/>
<path d="M56.7679 27.7167H52.9107C52.4649 27.7167 52.0293 27.3519 51.9435 26.9061L51.1996 23.0489C51.1138 22.6031 51.4079 22.2383 51.8537 22.2383H55.7109C56.1567 22.2383 56.5923 22.6031 56.678 23.0489L57.422 26.9061C57.5077 27.3519 57.2137 27.7167 56.7679 27.7167Z" fill="#AFCDFB"/>
<path d="M66.4974 27.7167H62.6403C62.1944 27.7167 61.7588 27.3519 61.6731 26.9061L60.9291 23.0489C60.8434 22.6031 61.1374 22.2383 61.5832 22.2383H65.4404C65.8862 22.2383 66.3218 22.6031 66.4076 23.0489L67.1515 26.9061C67.2373 27.3519 66.9432 27.7167 66.4974 27.7167Z" fill="#AFCDFB"/>
<path d="M76.2343 27.7167H72.3772C71.9313 27.7167 71.4957 27.3519 71.41 26.9061L70.666 23.0489C70.5803 22.6031 70.8743 22.2383 71.3201 22.2383H75.1773C75.6231 22.2383 76.0587 22.6031 76.1445 23.0489L76.8884 26.9061C76.9742 27.3519 76.6801 27.7167 76.2343 27.7167Z" fill="#78ACEA"/>
<path d="M85.9675 27.7167H82.1104C81.6646 27.7167 81.229 27.3519 81.1432 26.9061L80.3993 23.0489C80.3135 22.6031 80.6075 22.2383 81.0534 22.2383H84.9105C85.3563 22.2383 85.7919 22.6031 85.8777 23.0489L86.6216 26.9061C86.7074 27.3519 86.4134 27.7167 85.9675 27.7167Z" fill="#78ACEA"/>
<path d="M60.0946 44.9736H56.2374C55.7916 44.9736 55.3567 44.6087 55.2702 44.1629L54.5263 40.3058C54.4405 39.8599 54.7346 39.4951 55.1804 39.4951H59.0375C59.4833 39.4951 59.919 39.8599 60.0047 40.3058L60.7487 44.1629C60.8344 44.6087 60.5404 44.9736 60.0946 44.9736Z" fill="#AFCDFB"/>
<path d="M69.8278 44.9736H65.9706C65.5248 44.9736 65.0892 44.6087 65.0034 44.1629L64.2595 40.3058C64.1738 39.8599 64.4678 39.4951 64.9136 39.4951H68.7708C69.2166 39.4951 69.6522 39.8599 69.7379 40.3058L70.4819 44.1629C70.5676 44.6087 70.2736 44.9736 69.8278 44.9736Z" fill="#AFCDFB"/>
<path d="M79.561 44.9736H75.7038C75.258 44.9736 74.8224 44.6087 74.7367 44.1629L73.9927 40.3058C73.907 39.8599 74.201 39.4951 74.6468 39.4951H78.504C78.9498 39.4951 79.3854 39.8599 79.4712 40.3058L80.2151 44.1629C80.3009 44.6087 80.0068 44.9736 79.561 44.9736Z" fill="#78ACEA"/>
<path d="M30.8949 44.9736H27.0377C26.5919 44.9736 26.1563 44.6087 26.0706 44.1629L25.3266 40.3058C25.2409 39.8599 25.5349 39.4951 25.9807 39.4951H29.8379C30.2837 39.4951 30.7193 39.8599 30.8051 40.3058L31.549 44.1629C31.6348 44.6087 31.3407 44.9736 30.8949 44.9736Z" fill="#AFCDFB"/>
<path d="M40.6281 44.9736H36.771C36.3251 44.9736 35.8895 44.6087 35.8038 44.1629L35.0598 40.3058C34.9741 39.8599 35.2681 39.4951 35.7139 39.4951H39.5711C40.0169 39.4951 40.4525 39.8599 40.5383 40.3058L41.2822 44.1629C41.368 44.6087 41.0739 44.9736 40.6281 44.9736Z" fill="#AFCDFB"/>
<path d="M50.365 44.9736H46.5079C46.0621 44.9736 45.6264 44.6087 45.5407 44.1629L44.7968 40.3058C44.711 39.8599 45.005 39.4951 45.4508 39.4951H49.308C49.7538 39.4951 50.1894 39.8599 50.2752 40.3058L51.0191 44.1629C51.1049 44.6087 50.8108 44.9736 50.365 44.9736Z" fill="#AFCDFB"/>
<path d="M89.2942 44.9736H85.4371C84.9913 44.9736 84.5556 44.6087 84.4699 44.1629L83.7259 40.3058C83.6402 39.8599 83.9342 39.4951 84.38 39.4951H88.2372C88.683 39.4951 89.1179 39.8599 89.2044 40.3058L89.9483 44.1629C90.0341 44.6087 89.74 44.9736 89.2942 44.9736Z" fill="#78ACEA"/>
<path d="M61.8076 53.8525H57.9505C57.5047 53.8525 57.0691 53.4876 56.9833 53.0418L56.2394 49.1847C56.1536 48.7388 56.4476 48.374 56.8935 48.374H60.7506C61.1964 48.374 61.632 48.7388 61.7178 49.1847L62.4617 53.0418C62.5475 53.4876 62.2535 53.8525 61.8076 53.8525Z" fill="#AFCDFB"/>
<path d="M71.5409 53.8525H67.6837C67.2379 53.8525 66.8023 53.4876 66.7165 53.0418L65.9726 49.1847C65.8868 48.7388 66.1809 48.374 66.6267 48.374H70.4838C70.9296 48.374 71.3653 48.7388 71.451 49.1847L72.195 53.0418C72.2807 53.4876 71.9867 53.8525 71.5409 53.8525Z" fill="#AFCDFB"/>
<path d="M81.2778 53.8525H77.4206C76.9748 53.8525 76.5392 53.4876 76.4534 53.0418L75.7095 49.1847C75.6237 48.7388 75.9178 48.374 76.3636 48.374H80.2207C80.6665 48.374 81.1022 48.7388 81.1879 49.1847L81.9319 53.0418C82.0176 53.4876 81.7236 53.8525 81.2778 53.8525Z" fill="#78ACEA"/>
<path d="M32.608 53.8525H28.7508C28.305 53.8525 27.8694 53.4876 27.7836 53.0418L27.0397 49.1847C26.9539 48.7388 27.248 48.374 27.6938 48.374H31.551C31.9968 48.374 32.4317 48.7388 32.5181 49.1847L33.2621 53.0418C33.3478 53.4876 33.0538 53.8525 32.608 53.8525Z" fill="#AFCDFB"/>
<path d="M42.3412 53.8525H38.484C38.0382 53.8525 37.6033 53.4876 37.5169 53.0418L36.7729 49.1847C36.6872 48.7388 36.9812 48.374 37.427 48.374H41.2842C41.73 48.374 42.1656 48.7388 42.2514 49.1847L42.9953 53.0418C43.0811 53.4876 42.787 53.8525 42.3412 53.8525Z" fill="#F99746"/>
<path d="M52.0744 53.8525H48.2173C47.7714 53.8525 47.3358 53.4876 47.2501 53.0418L46.5061 49.1847C46.4204 48.7388 46.7144 48.374 47.1602 48.374H51.0174C51.4632 48.374 51.8988 48.7388 51.9846 49.1847L52.7285 53.0418C52.8143 53.4876 52.5202 53.8525 52.0744 53.8525Z" fill="#AFCDFB"/>
<path d="M91.0073 53.8525H87.1501C86.7043 53.8525 86.2687 53.4876 86.183 53.0418L85.439 49.1847C85.3533 48.7388 85.6473 48.374 86.0931 48.374H89.9503C90.3961 48.374 90.8317 48.7388 90.9175 49.1847L91.6614 53.0418C91.7471 53.4876 91.4531 53.8525 91.0073 53.8525Z" fill="#78ACEA"/>
<path d="M63.4249 62.2304H59.5678C59.122 62.2304 58.6863 61.8656 58.6006 61.4198L57.8567 57.5626C57.7709 57.1168 58.0649 56.752 58.5107 56.752H62.3679C62.8137 56.752 63.2493 57.1168 63.3351 57.5626L64.079 61.4198C64.1648 61.8656 63.8707 62.2304 63.4249 62.2304Z" fill="#AFCDFB"/>
<path d="M73.1582 62.2304H69.301C68.8552 62.2304 68.4196 61.8656 68.3338 61.4198L67.5899 57.5626C67.5041 57.1168 67.7982 56.752 68.244 56.752H72.1011C72.5469 56.752 72.9826 57.1168 73.0683 57.5626L73.8122 61.4198C73.898 61.8656 73.604 62.2304 73.1582 62.2304Z" fill="#AFCDFB"/>
<path d="M82.8914 62.2304H79.0342C78.5884 62.2304 78.1528 61.8656 78.067 61.4198L77.3231 57.5626C77.2373 57.1168 77.5314 56.752 77.9772 56.752H81.8343C82.2802 56.752 82.7158 57.1168 82.8015 57.5626L83.5455 61.4198C83.6312 61.8656 83.3372 62.2304 82.8914 62.2304Z" fill="#78ACEA"/>
<path d="M34.2253 62.2304H30.3681C29.9223 62.2304 29.4867 61.8656 29.4009 61.4198L28.657 57.5626C28.5712 57.1168 28.8653 56.752 29.3111 56.752H33.1682C33.6141 56.752 34.0497 57.1168 34.1354 57.5626L34.8794 61.4198C34.9651 61.8656 34.6711 62.2304 34.2253 62.2304Z" fill="#AFCDFB"/>
<path d="M43.9585 62.2304H40.1013C39.6555 62.2304 39.2199 61.8656 39.1341 61.4198L38.3902 57.5626C38.3045 57.1168 38.5985 56.752 39.0443 56.752H42.9015C43.3473 56.752 43.7829 57.1168 43.8686 57.5626L44.6126 61.4198C44.6983 61.8656 44.4043 62.2304 43.9585 62.2304Z" fill="#AFCDFB"/>
<path d="M53.6917 62.2304H49.8346C49.3887 62.2304 48.9531 61.8656 48.8674 61.4198L48.1234 57.5626C48.0377 57.1168 48.3317 56.752 48.7775 56.752H52.6347C53.0805 56.752 53.5161 57.1168 53.6019 57.5626L54.3458 61.4198C54.4316 61.8656 54.1375 62.2304 53.6917 62.2304Z" fill="#AFCDFB"/>
<path d="M36.6437 22.9916H26.4253C26.2749 22.9916 26.1517 22.8684 26.1517 22.718C26.1517 22.5675 26.2749 22.4443 26.4253 22.4443H36.6437C36.7941 22.4443 36.9173 22.5675 36.9173 22.718C36.9173 22.8684 36.7941 22.9916 36.6437 22.9916Z" fill="#AFCDFB"/>
<path d="M36.9569 24.2289H26.7385C26.5881 24.2289 26.4649 24.1057 26.4649 23.9553C26.4649 23.8048 26.5881 23.6816 26.7385 23.6816H36.9569C37.1073 23.6816 37.2305 23.8048 37.2305 23.9553C37.2305 24.1057 37.1073 24.2289 36.9569 24.2289Z" fill="#AFCDFB"/>
<path d="M25.6854 13.7765H22.1788C21.8915 13.7765 21.6567 13.5417 21.6567 13.2545C21.6567 12.9672 21.8915 12.7324 22.1788 12.7324H25.6854C25.9726 12.7324 26.2075 12.9672 26.2075 13.2545C26.2075 13.5417 25.9726 13.7765 25.6854 13.7765Z" fill="black"/>
<path d="M35.3081 13.7765H31.8015C31.5142 13.7765 31.2794 13.5417 31.2794 13.2545C31.2794 12.9672 31.5142 12.7324 31.8015 12.7324H35.3081C35.5953 12.7324 35.8301 12.9672 35.8301 13.2545C35.8301 13.5417 35.5953 13.7765 35.3081 13.7765Z" fill="black"/>
<path d="M44.9308 13.7765H41.4242C41.1369 13.7765 40.9021 13.5417 40.9021 13.2545C40.9021 12.9672 41.1369 12.7324 41.4242 12.7324H44.9308C45.218 12.7324 45.4528 12.9672 45.4528 13.2545C45.4528 13.5417 45.218 13.7765 44.9308 13.7765Z" fill="black"/>
<path d="M54.5498 13.7765H51.0432C50.756 13.7765 50.5211 13.5417 50.5211 13.2545C50.5211 12.9672 50.756 12.7324 51.0432 12.7324H54.5498C54.837 12.7324 55.0719 12.9672 55.0719 13.2545C55.0719 13.5417 54.837 13.7765 54.5498 13.7765Z" fill="black"/>
<path d="M64.1725 13.7765H60.6659C60.3787 13.7765 60.1438 13.5417 60.1438 13.2545C60.1438 12.9672 60.3787 12.7324 60.6659 12.7324H64.1725C64.4597 12.7324 64.6946 12.9672 64.6946 13.2545C64.6946 13.5417 64.4597 13.7765 64.1725 13.7765Z" fill="black"/>
<path d="M73.7915 13.7765H70.2849C69.9977 13.7765 69.7629 13.5417 69.7629 13.2545C69.7629 12.9672 69.9977 12.7324 70.2849 12.7324H73.7915C74.0788 12.7324 74.3136 12.9672 74.3136 13.2545C74.3136 13.5417 74.0788 13.7765 73.7915 13.7765Z" fill="black"/>
<path d="M83.4179 13.7765H79.9113C79.624 13.7765 79.3892 13.5417 79.3892 13.2545C79.3892 12.9672 79.624 12.7324 79.9113 12.7324H83.4179C83.7051 12.7324 83.94 12.9672 83.94 13.2545C83.94 13.5417 83.7051 13.7765 83.4179 13.7765Z" fill="black"/>
<path d="M61.2416 27.793C60.4671 27.793 59.9035 27.5473 59.5958 27.0701C59.0064 26.1554 59.4618 24.873 60.9476 23.2593C62.0332 22.0804 63.3012 21.1466 63.3135 21.137C63.3632 21.1003 63.4333 21.1112 63.47 21.1609C63.5068 21.2105 63.4959 21.2806 63.4462 21.3174C63.3965 21.3535 58.5102 24.9717 59.7844 26.949C60.188 27.5752 61.0517 27.6167 61.7058 27.5411C62.9167 27.4009 64.4951 26.7489 65.9285 25.7973C67.4123 24.8118 68.457 23.701 68.796 22.7501C69.0179 22.126 68.9491 21.6843 68.5918 21.4365C68.1296 21.1166 67.1638 21.1166 66.0088 21.4358C64.9021 21.7414 63.7886 22.2921 63.1025 22.8733C63.0555 22.9135 62.9847 22.9074 62.9446 22.8604C62.9044 22.8134 62.9105 22.7427 62.9575 22.7025C63.6667 22.1022 64.8129 21.5345 65.9489 21.2208C67.1856 20.8791 68.195 20.8906 68.7191 21.2534C69.0294 21.4678 69.331 21.915 69.007 22.8257C68.6524 23.8215 67.5756 24.9724 66.0523 25.9838C64.591 26.9544 62.9759 27.6201 61.7317 27.7637C61.5602 27.7834 61.3968 27.7936 61.2416 27.7936V27.793Z" fill="#C65447"/>
</svg>
