<svg width="27" height="26" viewBox="0 0 27 26" fill="none" xmlns="http://www.w3.org/2000/svg">
<path fill-rule="evenodd" clip-rule="evenodd" d="M5.78974 1.35417C6.04242 1.01318 6.43898 0.8125 6.86011 0.8125H19.7046C20.1257 0.8125 20.5222 1.01318 20.7749 1.35417L23.986 5.6875C24.1597 5.9219 24.2536 6.207 24.2536 6.5V21.6667C24.2536 22.6005 23.8871 23.496 23.2347 24.1563C22.5824 24.8166 21.6975 25.1875 20.7749 25.1875H5.78974C4.86713 25.1875 3.98231 24.8166 3.32992 24.1563C2.67754 23.496 2.31104 22.6005 2.31104 21.6667V6.5C2.31104 6.207 2.40493 5.9219 2.57863 5.6875L5.78974 1.35417ZM7.52909 3.52083L4.98696 6.95139V21.6667C4.98696 21.8822 5.07154 22.0888 5.22209 22.2412C5.37264 22.3936 5.57683 22.4792 5.78974 22.4792H20.7749C20.9878 22.4792 21.192 22.3936 21.3426 22.2412C21.4931 22.0888 21.5777 21.8822 21.5777 21.6667V6.95139L19.0356 3.52083H7.52909Z" fill="#828282"/>
<path fill-rule="evenodd" clip-rule="evenodd" d="M2.31104 6.50016C2.31104 5.75228 2.91006 5.146 3.649 5.146H22.9157C23.6546 5.146 24.2536 5.75228 24.2536 6.50016C24.2536 7.24805 23.6546 7.85433 22.9157 7.85433H3.649C2.91006 7.85433 2.31104 7.24805 2.31104 6.50016Z" fill="#828282"/>
<path fill-rule="evenodd" clip-rule="evenodd" d="M9.00105 9.479C9.73999 9.479 10.339 10.0853 10.339 10.8332C10.339 11.6233 10.6491 12.3811 11.2011 12.9398C11.7532 13.4985 12.5019 13.8123 13.2825 13.8123C14.0632 13.8123 14.8119 13.4985 15.3639 12.9398C15.9159 12.3811 16.226 11.6233 16.226 10.8332C16.226 10.0853 16.8251 9.479 17.564 9.479C18.3029 9.479 18.902 10.0853 18.902 10.8332C18.902 12.3416 18.3099 13.7882 17.2561 14.8548C16.2022 15.9215 14.7729 16.5207 13.2825 16.5207C11.7922 16.5207 10.3628 15.9215 9.30898 14.8548C8.25513 13.7882 7.66309 12.3416 7.66309 10.8332C7.66309 10.0853 8.26211 9.479 9.00105 9.479Z" fill="#828282"/>
</svg>
