<svg width="17" height="15" viewBox="0 0 17 15" fill="none" xmlns="http://www.w3.org/2000/svg">
<path d="M15.912 1.93674C16.1654 1.68245 16.1647 1.27089 15.9104 1.01751C15.6561 0.76412 15.2445 0.764856 14.9911 1.01915L15.912 1.93674ZM8.03819 8.9179L7.57775 9.3767C7.69971 9.4991 7.8654 9.5679 8.03819 9.5679C8.21098 9.5679 8.37667 9.4991 8.49863 9.3767L8.03819 8.9179ZM6.4768 6.43003C6.22341 6.17573 5.81185 6.175 5.55756 6.42838C5.30327 6.68177 5.30253 7.09333 5.55592 7.34762L6.4768 6.43003ZM15.4276 6.93617C15.4276 6.57718 15.1366 6.28617 14.7776 6.28617C14.4186 6.28617 14.1276 6.57718 14.1276 6.93617H15.4276ZM14.7776 7.56518L15.4276 7.56577V7.56518H14.7776ZM9.94949 14.0461L9.76478 13.4229L9.76423 13.423L9.94949 14.0461ZM2.38312 11.2432L1.83723 11.5961L1.83734 11.5963L2.38312 11.2432ZM2.91486 3.16614L2.42009 2.74459L2.42002 2.74468L2.91486 3.16614ZM10.5162 1.97613C10.844 2.12246 11.2284 1.97533 11.3747 1.64752C11.521 1.31971 11.3739 0.935351 11.0461 0.789027L10.5162 1.97613ZM14.9911 1.01915L7.57775 8.45911L8.49863 9.3767L15.912 1.93674L14.9911 1.01915ZM8.49863 8.45911L6.4768 6.43003L5.55592 7.34762L7.57775 9.3767L8.49863 8.45911ZM14.1276 6.93617V7.56518H15.4276V6.93617H14.1276ZM14.1276 7.5646C14.1252 10.2749 12.349 12.6569 9.76478 13.4229L10.1342 14.6693C13.2731 13.7389 15.4247 10.848 15.4276 7.56577L14.1276 7.5646ZM9.76423 13.423C7.18031 14.1913 4.39764 13.1608 2.92889 10.8902L1.83734 11.5963C3.61835 14.3496 6.99553 15.6025 10.1347 14.6691L9.76423 13.423ZM2.929 10.8904C1.46057 8.61867 1.65627 5.64631 3.4097 3.5876L2.42002 2.74468C0.294222 5.24058 0.0572543 8.84243 1.83723 11.5961L2.929 10.8904ZM3.40963 3.58769C5.163 1.52976 8.05227 0.876319 10.5162 1.97613L11.0461 0.789027C8.05509 -0.546052 4.54729 0.247915 2.42009 2.74459L3.40963 3.58769Z" fill="#575AE5"/>
</svg>
