<svg width="13" height="13" viewBox="0 0 13 13" fill="none" xmlns="http://www.w3.org/2000/svg">
<path d="M6.7938 8.10986H1.4692C1.27074 8.10986 1.10616 7.94528 1.10616 7.74682V4.65855C1.10616 4.50365 1.20297 4.3681 1.34335 4.31486C1.48856 4.26161 1.64831 4.30519 1.74512 4.42136C2.04039 4.77472 2.50024 4.97318 2.95526 4.95866C3.3425 4.94898 3.70069 4.80377 3.97176 4.54722C4.09761 4.44073 4.19927 4.31487 4.27671 4.17449C4.42677 3.91794 4.49939 3.63718 4.49455 3.35159C4.48486 2.90626 4.29125 2.49966 3.9621 2.20439C3.84592 2.10273 3.80719 1.94299 3.86044 1.80261C3.91368 1.66224 4.04922 1.56543 4.19928 1.56543H7.76191C7.96038 1.56543 8.12496 1.73001 8.12496 1.92847V6.76902C8.12496 7.51446 7.52957 8.10986 6.7938 8.10986ZM1.83224 7.38378H6.7938C7.1278 7.38378 7.39887 7.11271 7.39887 6.77871V2.3012H4.94956C5.11898 2.61584 5.21095 2.9692 5.22063 3.33709C5.23031 3.75821 5.12381 4.17449 4.91083 4.53753C4.79465 4.74568 4.63492 4.94415 4.46066 5.08936C4.07341 5.45724 3.54095 5.67506 2.97461 5.68958C2.57284 5.70411 2.17593 5.60246 1.83709 5.41852V7.38378H1.83224Z" fill="#667085"/>
<path d="M9.69813 11.0142H9.21408C9.01562 11.0142 8.85104 10.8497 8.85104 10.6512C8.85104 10.3172 8.57997 10.0461 8.24597 10.0461C7.91197 10.0461 7.6409 10.3172 7.6409 10.6512C7.6409 10.8497 7.47632 11.0142 7.27786 11.0142H5.34164C5.14318 11.0142 4.9786 10.8497 4.9786 10.6512C4.9786 10.3172 4.70753 10.0461 4.37353 10.0461C4.03953 10.0461 3.76846 10.3172 3.76846 10.6512C3.76846 10.8497 3.60388 11.0142 3.40542 11.0142H2.92137C1.91937 11.0142 1.10616 10.201 1.10616 9.19904V7.74688C1.10616 7.54841 1.27074 7.38384 1.4692 7.38384H6.79381C7.1278 7.38384 7.39887 7.11276 7.39887 6.77877V3.39038C7.39887 3.19192 7.56345 3.02734 7.76191 3.02734H8.65259C9.1318 3.02734 9.57227 3.2839 9.80946 3.70019L10.6372 5.14751C10.7001 5.25884 10.7001 5.39921 10.6372 5.51055C10.5743 5.62188 10.4532 5.68964 10.3226 5.68964H9.69813C9.63037 5.68964 9.57712 5.74289 9.57712 5.81066V7.26282C9.57712 7.33059 9.63037 7.38384 9.69813 7.38384H11.1503C11.3488 7.38384 11.5133 7.54841 11.5133 7.74688V9.19904C11.5133 10.201 10.7001 11.0142 9.69813 11.0142ZM9.52873 10.2882H9.69813C10.2984 10.2882 10.7873 9.79927 10.7873 9.19904V8.10992H9.69813C9.23344 8.10992 8.85104 7.72751 8.85104 7.26282V5.81066C8.85104 5.34597 9.2286 4.96356 9.69813 4.96356L9.18019 4.05838C9.0737 3.8696 8.87041 3.75343 8.65259 3.75343H8.12496V6.77877C8.12496 7.51453 7.52957 8.10992 6.79381 8.10992H1.83224V9.19904C1.83224 9.79927 2.32114 10.2882 2.92137 10.2882H3.09078C3.25051 9.7315 3.76362 9.32005 4.37353 9.32005C4.98344 9.32005 5.49655 9.7315 5.65629 10.2882H6.96806C7.1278 9.7315 7.64091 9.32005 8.25081 9.32005C8.86072 9.32005 9.36899 9.7315 9.52873 10.2882Z" fill="#667085"/>
<path d="M4.37354 11.9816C3.63778 11.9816 3.04239 11.3862 3.04239 10.6505C3.04239 9.91472 3.63778 9.31934 4.37354 9.31934C5.1093 9.31934 5.70469 9.91472 5.70469 10.6505C5.70469 11.3862 5.1093 11.9816 4.37354 11.9816ZM4.37354 10.0454C4.03954 10.0454 3.76847 10.3165 3.76847 10.6505C3.76847 10.9845 4.03954 11.2556 4.37354 11.2556C4.70754 11.2556 4.97861 10.9845 4.97861 10.6505C4.97861 10.3165 4.70754 10.0454 4.37354 10.0454Z" fill="#667085"/>
<path d="M8.24597 11.9816C7.5102 11.9816 6.91482 11.3862 6.91482 10.6505C6.91482 9.91472 7.5102 9.31934 8.24597 9.31934C8.98173 9.31934 9.57712 9.91472 9.57712 10.6505C9.57712 11.3862 8.98173 11.9816 8.24597 11.9816ZM8.24597 10.0454C7.91197 10.0454 7.6409 10.3165 7.6409 10.6505C7.6409 10.9845 7.91197 11.2556 8.24597 11.2556C8.57997 11.2556 8.85104 10.9845 8.85104 10.6505C8.85104 10.3165 8.57997 10.0454 8.24597 10.0454Z" fill="#667085"/>
<path d="M11.1503 8.10925H9.69814C9.23345 8.10925 8.85104 7.72684 8.85104 7.26215V5.80999C8.85104 5.34529 9.23345 4.96289 9.69814 4.96289H10.3226C10.4533 4.96289 10.5743 5.03066 10.6372 5.14683L11.465 6.599C11.494 6.65224 11.5133 6.71517 11.5133 6.7781V7.74621C11.5133 7.94467 11.3488 8.10925 11.1503 8.10925ZM9.69814 5.68897C9.63037 5.68897 9.57713 5.74222 9.57713 5.80999V7.26215C9.57713 7.32992 9.63037 7.38316 9.69814 7.38316H10.7873V6.87491L10.1096 5.68897H9.69814Z" fill="#667085"/>
<path d="M2.92138 5.68934C1.65315 5.68934 0.622116 4.6583 0.622116 3.39008C0.622116 2.68336 0.936766 2.02988 1.48375 1.59423C1.89035 1.26991 2.40344 1.09082 2.92138 1.09082C4.1896 1.09082 5.22063 2.12186 5.22063 3.39008C5.22063 4.04839 4.93505 4.67766 4.43647 5.11331C4.01534 5.48604 3.47804 5.68934 2.92138 5.68934ZM2.92138 1.8169C2.56318 1.8169 2.22432 1.9379 1.93873 2.16541C1.56601 2.46068 1.3482 2.91087 1.3482 3.39008C1.3482 4.25654 2.05492 4.96326 2.92138 4.96326C3.29894 4.96326 3.66683 4.82288 3.9621 4.57117C4.30094 4.27106 4.49455 3.84509 4.49455 3.39008C4.49455 2.52362 3.78783 1.8169 2.92138 1.8169Z" fill="#667085"/>
<path d="M2.43726 4.23708C2.31625 4.23708 2.19523 4.17416 2.12746 4.06283C2.02581 3.88857 2.07906 3.66589 2.25332 3.56424L2.68414 3.3077V2.78492C2.68414 2.58645 2.84871 2.42188 3.04718 2.42188C3.24564 2.42188 3.41022 2.58645 3.41022 2.78492V3.511C3.41022 3.63685 3.34246 3.75787 3.23597 3.8208L2.6309 4.18384C2.56313 4.22257 2.50019 4.23708 2.43726 4.23708Z" fill="#667085"/>
</svg>
