<svg width="26" height="26" viewBox="0 0 26 26" fill="none" xmlns="http://www.w3.org/2000/svg">
<g clip-path="url(#clip0_759_14550)">
<path fill-rule="evenodd" clip-rule="evenodd" d="M1.47855 16.6353C2.51309 15.5882 3.91624 15 5.37932 15H13.9423C15.4054 15 16.8085 15.5882 17.8431 16.6353C18.8776 17.6824 19.4588 19.1025 19.4588 20.5833V22.75C19.4588 23.4404 18.9059 24 18.2238 24C17.5417 24 16.9887 23.4404 16.9887 22.75V20.5833C16.9887 19.7656 16.6678 18.9813 16.0964 18.4031C15.5251 17.8249 14.7502 17.5 13.9423 17.5H5.37932C4.57135 17.5 3.79648 17.8249 3.22516 18.4031C2.65384 18.9813 2.33288 19.7656 2.33288 20.5833V22.75C2.33288 23.4404 1.77993 24 1.09784 24C0.41574 24 -0.137207 23.4404 -0.137207 22.75V20.5833C-0.137207 19.1025 0.443997 17.6824 1.47855 16.6353Z" fill="#4F4F4F"/>
<path fill-rule="evenodd" clip-rule="evenodd" d="M9.66057 4.5C7.97807 4.5 6.61413 5.88046 6.61413 7.58333C6.61413 9.28621 7.97807 10.6667 9.66057 10.6667C11.3431 10.6667 12.707 9.28621 12.707 7.58333C12.707 5.88046 11.3431 4.5 9.66057 4.5ZM4.14404 7.58333C4.14404 4.49974 6.61387 2 9.66057 2C12.7073 2 15.1771 4.49974 15.1771 7.58333C15.1771 10.6669 12.7073 13.1667 9.66057 13.1667C6.61387 13.1667 4.14404 10.6669 4.14404 7.58333Z" fill="#4F4F4F"/>
<path fill-rule="evenodd" clip-rule="evenodd" d="M20.239 16.0784C20.4095 15.41 21.0831 15.008 21.7436 15.1806C22.927 15.4899 23.9755 16.1882 24.7244 17.1659C25.4732 18.1437 25.88 19.3454 25.881 20.5825V22.7501C25.881 23.4404 25.328 24.0001 24.6459 24.0001C23.9638 24.0001 23.4109 23.4404 23.4109 22.7501V20.5838C23.4102 19.9008 23.1856 19.2374 22.7722 18.6976C22.3586 18.1577 21.7796 17.772 21.126 17.6012C20.4656 17.4286 20.0685 16.7469 20.239 16.0784Z" fill="#4F4F4F"/>
<path fill-rule="evenodd" clip-rule="evenodd" d="M15.9569 3.08088C16.126 2.41209 16.7989 2.00875 17.4596 2.17999C18.6463 2.48749 19.698 3.18597 20.4491 4.1653C21.2002 5.14463 21.6079 6.3491 21.6079 7.58884C21.6079 8.82858 21.2002 10.0331 20.4491 11.0124C19.698 11.9917 18.6463 12.6902 17.4596 12.9977C16.7989 13.1689 16.126 12.7656 15.9569 12.0968C15.7877 11.428 16.1862 10.7471 16.847 10.5758C17.5023 10.406 18.0831 10.0203 18.4979 9.47946C18.9126 8.93863 19.1378 8.27347 19.1378 7.58884C19.1378 6.90421 18.9126 6.23905 18.4979 5.69823C18.0831 5.1574 17.5023 4.77168 16.847 4.60186C16.1862 4.43063 15.7877 3.74966 15.9569 3.08088Z" fill="#4F4F4F"/>
</g>
<defs>
<clipPath id="clip0_759_14550">
<rect width="25.6889" height="26" fill="white" transform="translate(0.0273438)"/>
</clipPath>
</defs>
</svg>
