<svg width="35" height="29" viewBox="0 0 35 29" fill="none" xmlns="http://www.w3.org/2000/svg">
<path d="M31.0036 0.838867H3.99593C1.8739 0.838867 0.137695 2.20494 0.137695 3.87458V25.1246C0.137695 26.7942 1.8739 28.1603 3.99593 28.1603H31.0036C33.1256 28.1603 34.8618 26.7942 34.8618 25.1246V3.87458C34.8618 2.20494 33.1256 0.838867 31.0036 0.838867ZM31.0036 25.1246H3.99593V18.1728L5.90576 19.6755L13.6222 13.604L21.3387 19.6755L29.0552 13.6192L31.0036 15.1523V25.1246ZM31.0036 10.8415L29.0552 9.30851L21.3387 15.3951L13.6222 9.32369L5.90576 15.3951L3.99593 13.8773V3.87458H31.0036V10.8415Z" fill="white"/>
</svg>
