<svg width="18" height="6" viewBox="0 0 18 6" fill="none" xmlns="http://www.w3.org/2000/svg">
<path fill-rule="evenodd" clip-rule="evenodd" d="M4.8635 5.83686H3.45593L2.40043 1.69161C2.35033 1.50093 2.24395 1.33236 2.08748 1.25291C1.69699 1.05325 1.26669 0.894346 0.797268 0.814205V0.654613H3.06475C3.37769 0.654613 3.6124 0.894346 3.65152 1.17277L4.19918 4.16287L5.60606 0.654613H6.97451L4.8635 5.83686ZM7.75687 5.83686H6.42754L7.52216 0.654613H8.8515L7.75687 5.83686ZM10.5713 2.09031C10.6104 1.8112 10.8452 1.65161 11.119 1.65161C11.5493 1.61154 12.018 1.69168 12.4092 1.89065L12.6439 0.774889C12.2527 0.615298 11.8224 0.535156 11.4319 0.535156C10.1417 0.535156 9.20288 1.25297 9.20288 2.24921C9.20288 3.0071 9.86788 3.40505 10.3373 3.64478C10.8452 3.88382 11.0407 4.04341 11.0016 4.28246C11.0016 4.64102 10.6104 4.80061 10.2199 4.80061C9.75053 4.80061 9.28111 4.68109 8.8515 4.48143L8.61679 5.59788C9.08621 5.79685 9.59406 5.87699 10.0635 5.87699C11.5102 5.91637 12.4092 5.19925 12.4092 4.12286C12.4092 2.76737 10.5713 2.68792 10.5713 2.09031ZM17.0615 5.83686L16.006 0.654613H14.8723C14.6376 0.654613 14.4028 0.814205 14.3246 1.05325L12.3701 5.83686H13.7385L14.0117 5.07966H15.6931L15.8495 5.83686H17.0615ZM15.0679 2.05005L15.4583 4.00315H14.3637L15.0679 2.05005Z" fill="#293EFD"/>
</svg>
