<svg width="14" height="15" viewBox="0 0 14 15" fill="none" xmlns="http://www.w3.org/2000/svg">
<path d="M9.9572 4.59411C9.91726 4.59411 9.8769 4.58273 9.84115 4.55891C9.74467 4.49471 9.71853 4.36446 9.78273 4.268L12.0488 0.863133C12.113 0.76665 12.2433 0.74049 12.3397 0.80472C12.4362 0.868922 12.4624 0.999173 12.3982 1.09563L10.1321 4.5005C10.0916 4.56125 10.025 4.59411 9.9572 4.59411Z" fill="#B1DBFC"/>
<path d="M9.3397 4.75693C9.30811 4.75693 9.27605 4.74976 9.24592 4.73466L7.29951 3.7598C7.19588 3.70789 7.15396 3.58183 7.20586 3.47823C7.25774 3.37458 7.3838 3.33266 7.48745 3.38459L9.43386 4.35945C9.53749 4.41136 9.57942 4.53742 9.52751 4.64101C9.49071 4.71448 9.41664 4.75693 9.3397 4.75693Z" fill="#B1DBFC"/>
<path d="M4.61486 5.97457C4.56122 5.97457 4.5076 5.95415 4.46661 5.91324C4.3846 5.83139 4.38449 5.69852 4.46636 5.61651L6.48949 3.58991C6.57133 3.5079 6.70418 3.50776 6.78621 3.58966C6.86822 3.67151 6.86834 3.80438 6.78646 3.88639L4.76333 5.91299C4.7224 5.95404 4.66862 5.97457 4.61486 5.97457Z" fill="#B1DBFC"/>
<path d="M2.0489 7.43514C1.97268 7.43514 1.89921 7.39351 1.86205 7.32104C1.80915 7.21794 1.84984 7.09147 1.95297 7.03857L3.69798 6.14332C3.8011 6.09037 3.92755 6.13114 3.98042 6.23421C4.03332 6.33731 3.99263 6.46378 3.88951 6.51668L2.1445 7.41193C2.11384 7.4277 2.08112 7.43514 2.0489 7.43514Z" fill="#B1DBFC"/>
<path d="M1.5553 8.11401C1.91362 8.11401 2.2041 7.82353 2.2041 7.46521C2.2041 7.10689 1.91362 6.81641 1.5553 6.81641C1.19697 6.81641 0.906494 7.10689 0.906494 7.46521C0.906494 7.82353 1.19697 8.11401 1.5553 8.11401Z" fill="#FF656F"/>
<path d="M4.27722 6.75073C4.63555 6.75073 4.92602 6.46025 4.92602 6.10193C4.92602 5.7436 4.63555 5.45312 4.27722 5.45312C3.9189 5.45312 3.62842 5.7436 3.62842 6.10193C3.62842 6.46025 3.9189 6.75073 4.27722 6.75073Z" fill="#FFA85D"/>
<path d="M6.9989 4.02417C7.35723 4.02417 7.64771 3.73369 7.64771 3.37537C7.64771 3.01704 7.35723 2.72656 6.9989 2.72656C6.64058 2.72656 6.3501 3.01704 6.3501 3.37537C6.3501 3.73369 6.64058 4.02417 6.9989 4.02417Z" fill="#FEE55A"/>
<path d="M9.72058 5.38745C10.0789 5.38745 10.3694 5.09697 10.3694 4.73865C10.3694 4.38032 10.0789 4.08984 9.72058 4.08984C9.36226 4.08984 9.07178 4.38032 9.07178 4.73865C9.07178 5.09697 9.36226 5.38745 9.72058 5.38745Z" fill="#43CB8E"/>
<path d="M12.4445 1.29761C12.8028 1.29761 13.0933 1.00713 13.0933 0.648804C13.0933 0.290479 12.8028 0 12.4445 0C12.0861 0 11.7957 0.290479 11.7957 0.648804C11.7957 1.00713 12.0861 1.29761 12.4445 1.29761Z" fill="#23A8FE"/>
<path d="M1.61523 7.46524C1.61523 7.2377 1.73244 7.03768 1.90966 6.92185C1.80778 6.85525 1.6861 6.81641 1.5553 6.81641C1.19696 6.81641 0.906494 7.10687 0.906494 7.46521C0.906494 7.82355 1.19699 8.11401 1.5553 8.11401C1.6861 8.11401 1.80778 8.07517 1.90966 8.00857C1.73241 7.89279 1.61523 7.69277 1.61523 7.46524Z" fill="#FF4756"/>
<path d="M4.33715 6.10098C4.33715 5.87345 4.45436 5.67342 4.63159 5.55759C4.5297 5.49099 4.40802 5.45215 4.27722 5.45215C3.91889 5.45215 3.62842 5.74262 3.62842 6.10095C3.62842 6.45929 3.91889 6.74976 4.27722 6.74976C4.40802 6.74976 4.5297 6.71091 4.63159 6.64431C4.45436 6.52853 4.33715 6.32851 4.33715 6.10098Z" fill="#FF9839"/>
<path d="M7.05883 3.37539C7.05883 3.14786 7.17604 2.94784 7.35327 2.832C7.25138 2.7654 7.1297 2.72656 6.9989 2.72656C6.64057 2.72656 6.3501 3.01703 6.3501 3.37537C6.3501 3.7337 6.64059 4.02417 6.9989 4.02417C7.1297 4.02417 7.25138 3.98533 7.35327 3.91873C7.17604 3.80295 7.05883 3.6029 7.05883 3.37539Z" fill="#FFD301"/>
<path d="M9.78051 4.73867C9.78051 4.51114 9.89772 4.31112 10.0749 4.19529C9.97306 4.12868 9.85138 4.08984 9.72058 4.08984C9.36224 4.08984 9.07178 4.38031 9.07178 4.73865C9.07178 5.09698 9.36227 5.38745 9.72058 5.38745C9.85138 5.38745 9.97306 5.34861 10.0749 5.28201C9.8977 5.16623 9.78051 4.96618 9.78051 4.73867Z" fill="#00BA66"/>
<path d="M12.5044 0.648804C12.5044 0.42127 12.6216 0.221248 12.7988 0.105414C12.6969 0.0388411 12.5753 0 12.4445 0C12.0861 0 11.7957 0.290468 11.7957 0.648804C11.7957 1.00714 12.0861 1.29761 12.4445 1.29761C12.5753 1.29761 12.6969 1.25877 12.7988 1.19217C12.6216 1.07636 12.5044 0.876337 12.5044 0.648804Z" fill="#0193FA"/>
<path d="M2.25831 9.86621H0.854904C0.75798 9.86621 0.679443 9.94477 0.679443 10.0417V13.9041H2.4338V10.0417C2.43377 9.9448 2.35521 9.86621 2.25831 9.86621Z" fill="#FF656F"/>
<path d="M4.97999 8.50293H3.57658C3.47966 8.50293 3.40112 8.58149 3.40112 8.67839V13.904H5.15548V8.67842C5.15548 8.58149 5.07691 8.50293 4.97999 8.50293Z" fill="#FFA85D"/>
<path d="M7.70167 5.76465H6.29826C6.20134 5.76465 6.1228 5.84321 6.1228 5.94011V13.904H7.87716V5.94011C7.87713 5.84321 7.79857 5.76465 7.70167 5.76465Z" fill="#FEE55A"/>
<path d="M10.4236 7.13965H9.02019C8.92329 7.13965 8.84473 7.21821 8.84473 7.31511V13.9039H10.5991V7.31511C10.5991 7.21821 10.5205 7.13965 10.4236 7.13965Z" fill="#43CB8E"/>
<path d="M13.1453 3.03125H11.7419C11.6449 3.03125 11.5664 3.10981 11.5664 3.20671V13.9043H13.3208V3.20674C13.3208 3.10981 13.2422 3.03125 13.1453 3.03125Z" fill="#23A8FE"/>
<path d="M1.93305 9.86621H0.854904C0.75798 9.86621 0.679443 9.94477 0.679443 10.0417V13.9041H1.75762V10.0417C1.75759 9.9448 1.83616 9.86621 1.93305 9.86621Z" fill="#FF4756"/>
<path d="M4.65476 8.50293H3.57658C3.47966 8.50293 3.40112 8.58149 3.40112 8.67839V13.904H4.4793V8.67842C4.4793 8.58149 4.55784 8.50293 4.65476 8.50293Z" fill="#FF9839"/>
<path d="M7.37644 5.76465H6.29826C6.20134 5.76465 6.1228 5.84321 6.1228 5.94011V13.904H7.20098V5.94011C7.20095 5.84321 7.27952 5.76465 7.37644 5.76465Z" fill="#FFD301"/>
<path d="M10.0983 7.13965H9.02019C8.92329 7.13965 8.84473 7.21821 8.84473 7.31511V13.9039H9.9229V7.31511C9.92288 7.21821 10.0014 7.13965 10.0983 7.13965Z" fill="#00BA66"/>
<path d="M12.82 3.03125H11.7419C11.6449 3.03125 11.5664 3.10981 11.5664 3.20671V13.9043H12.6446V3.20674C12.6446 3.10981 12.7231 3.03125 12.82 3.03125Z" fill="#0193FA"/>
<path d="M13.7902 14.114H0.209808C0.0939188 14.114 0 14.0201 0 13.9041C0 13.7882 0.0939464 13.6943 0.209808 13.6943H13.7902C13.9061 13.6943 14 13.7883 14 13.9041C14 14.02 13.9061 14.114 13.7902 14.114Z" fill="#23A8FE"/>
</svg>
