<svg width="26" height="26" viewBox="0 0 26 26" fill="none" xmlns="http://www.w3.org/2000/svg">
<path d="M4.875 26H21.125C23.8176 26 26 23.8176 26 21.125V4.875C26 2.1824 23.8176 0 21.125 0H4.875C2.1824 0 0 2.1824 0 4.875V21.125C0 23.8176 2.1824 26 4.875 26Z" fill="#FFF9DD"/>
<path d="M14.4893 6.5H18.5518C19.0751 6.5 19.5 6.9249 19.5 7.44818V9.88568C19.5 10.4082 19.0751 10.8339 18.5518 10.8339H14.4893C13.9668 10.8339 13.5411 10.409 13.5411 9.88568V7.44818C13.5419 6.9249 13.9668 6.5 14.4893 6.5Z" fill="#FFE777"/>
<path d="M14.4893 11.917H18.5518C19.0751 11.917 19.5 12.3419 19.5 12.8644V18.5519C19.5 19.0752 19.0751 19.5001 18.5518 19.5001H14.4893C13.9668 19.5001 13.5411 19.0752 13.5411 18.5519V12.8644C13.5419 12.3419 13.9668 11.917 14.4893 11.917Z" fill="#FFD200"/>
<path d="M7.44904 15.167H11.5115C12.034 15.167 12.4597 15.5919 12.4597 16.1152V18.5527C12.4597 19.0752 12.0348 19.5009 11.5115 19.5009H7.44904C6.92575 19.5001 6.50085 19.0752 6.50085 18.5519V16.1144C6.50085 15.5919 6.92575 15.167 7.44904 15.167Z" fill="#FFE777"/>
<path d="M7.44904 6.5H11.5115C12.034 6.5 12.4597 6.9249 12.4597 7.44818V13.1357C12.4597 13.6582 12.0348 14.0839 11.5115 14.0839H7.44904C6.92654 14.0839 6.50085 13.659 6.50085 13.1357V7.44818C6.50085 6.9249 6.92575 6.5 7.44904 6.5Z" fill="#FFD200"/>
</svg>
