<svg width="20" height="18" viewBox="0 0 20 18" fill="none" xmlns="http://www.w3.org/2000/svg">
<path d="M18.3333 9.00033V15.667C18.3333 16.109 18.1577 16.5329 17.8451 16.8455C17.5325 17.1581 17.1086 17.3337 16.6666 17.3337H3.33325C2.89122 17.3337 2.4673 17.1581 2.15474 16.8455C1.84218 16.5329 1.66659 16.109 1.66659 15.667V9.00033C1.44557 9.00033 1.23361 8.91253 1.07733 8.75625C0.921049 8.59997 0.833252 8.38801 0.833252 8.16699V5.66699C0.833252 5.22496 1.00885 4.80104 1.32141 4.48848C1.63397 4.17592 2.05789 4.00033 2.49992 4.00033H5.14159C5.0474 3.7326 4.9995 3.4508 4.99992 3.16699C4.99992 2.50395 5.26331 1.86807 5.73215 1.39923C6.20099 0.930384 6.83688 0.666992 7.49992 0.666992C8.33325 0.666992 9.06659 1.08366 9.52492 1.70033V1.69199L9.99992 2.33366L10.4749 1.69199V1.70033C10.9333 1.08366 11.6666 0.666992 12.4999 0.666992C13.163 0.666992 13.7988 0.930384 14.2677 1.39923C14.7365 1.86807 14.9999 2.50395 14.9999 3.16699C15.0003 3.4508 14.9524 3.7326 14.8583 4.00033H17.4999C17.9419 4.00033 18.3659 4.17592 18.6784 4.48848C18.991 4.80104 19.1666 5.22496 19.1666 5.66699V8.16699C19.1666 8.38801 19.0788 8.59997 18.9225 8.75625C18.7662 8.91253 18.5543 9.00033 18.3333 9.00033ZM3.33325 15.667H9.16659V9.00033H3.33325V15.667ZM16.6666 15.667V9.00033H10.8333V15.667H16.6666ZM7.49992 2.33366C7.27891 2.33366 7.06694 2.42146 6.91066 2.57774C6.75438 2.73402 6.66659 2.94598 6.66659 3.16699C6.66659 3.38801 6.75438 3.59997 6.91066 3.75625C7.06694 3.91253 7.27891 4.00033 7.49992 4.00033C7.72093 4.00033 7.93289 3.91253 8.08917 3.75625C8.24545 3.59997 8.33325 3.38801 8.33325 3.16699C8.33325 2.94598 8.24545 2.73402 8.08917 2.57774C7.93289 2.42146 7.72093 2.33366 7.49992 2.33366ZM12.4999 2.33366C12.2789 2.33366 12.0669 2.42146 11.9107 2.57774C11.7544 2.73402 11.6666 2.94598 11.6666 3.16699C11.6666 3.38801 11.7544 3.59997 11.9107 3.75625C12.0669 3.91253 12.2789 4.00033 12.4999 4.00033C12.7209 4.00033 12.9329 3.91253 13.0892 3.75625C13.2455 3.59997 13.3333 3.38801 13.3333 3.16699C13.3333 2.94598 13.2455 2.73402 13.0892 2.57774C12.9329 2.42146 12.7209 2.33366 12.4999 2.33366ZM2.49992 5.66699V7.33366H9.16659V5.66699H2.49992ZM10.8333 5.66699V7.33366H17.4999V5.66699H10.8333Z" fill="#5686E1"/>
</svg>
