<svg width="15" height="15" viewBox="0 0 15 15" fill="none" xmlns="http://www.w3.org/2000/svg">
<path d="M14.25 7.68333C14.25 3.10833 11.055 0 7.5 0C3.9825 0 0.75 3.04167 0.75 7.73333C0.3 8.01667 0 8.55 0 9.16667V10.8333C0 11.75 0.675 12.5 1.5 12.5H2.25V7.41667C2.25 4.19167 4.5975 1.58333 7.5 1.58333C10.4025 1.58333 12.75 4.19167 12.75 7.41667V13.3333H6.75V15H12.75C13.575 15 14.25 14.25 14.25 13.3333V12.3167C14.6925 12.0583 15 11.55 15 10.95V9.03333C15 8.45 14.6925 7.94167 14.25 7.68333Z" fill="#E9AC71"/>
<path d="M5.25 9.16667C5.66421 9.16667 6 8.79357 6 8.33333C6 7.8731 5.66421 7.5 5.25 7.5C4.83579 7.5 4.5 7.8731 4.5 8.33333C4.5 8.79357 4.83579 9.16667 5.25 9.16667Z" fill="#E9AC71"/>
<path d="M9.75 9.16667C10.1642 9.16667 10.5 8.79357 10.5 8.33333C10.5 7.8731 10.1642 7.5 9.75 7.5C9.33579 7.5 9 7.8731 9 8.33333C9 8.79357 9.33579 9.16667 9.75 9.16667Z" fill="#E9AC71"/>
<path d="M12.0001 6.69167C11.6401 4.31667 9.7801 2.5 7.5376 2.5C5.2651 2.5 2.8201 4.59167 3.0151 7.875C4.8676 7.03333 6.2626 5.2 6.6601 2.96667C7.6426 5.15833 9.6601 6.66667 12.0001 6.69167Z" fill="#E9AC71"/>
</svg>
